<?xml version="1.0" encoding="UTF-8"?>
<svg id="Vrstva_1" data-name="Vrstva 1" xmlns="http://www.w3.org/2000/svg" viewBox="0 0 93.52 162.69">
  <defs>
    <style>
      .cls-1 {
        fill: #f8a922;
      }

      .cls-2 {
        fill: #e73b1f;
      }

      .cls-3 {
        fill: #ffe85b;
      }

      .cls-4 {
        fill: #ed6a26;
      }

      .cls-5 {
        fill: #e52e12;
      }

      .cls-6 {
        fill: #eb5f1f;
      }

      .cls-7 {
        fill: #fecb3d;
      }
    </style>
  </defs>
  <path class="cls-1" d="M25.61,55.54c7.03-7.33,2.92-17.71-4.76-8.82-.71-6.57,1.26-11.35,3.93-14.74.4-.51.82-.98,1.24-1.43.22-.23.43-.44.65-.65,3.88-3.75,8.23-5.14,8.24-5.14,0-.02,0-.13-.02-.29-.03-.17-.07-.34-.08-.37-.01-.02,0-.03-.03-.06-.02-.09-.06-.18-.12-.28-.04-.1-.12-.2-.2-.29-.13-.17-.31-.32-.54-.45-.09-.05-.15-.08-.22-.11-.07-.02-.13-.05-.21-.07-.14-.05-.28-.07-.43-.09-.12-.01-.25-.03-.38-.03-.18,0-.34,0-.52.02-.17,0-.33.02-.5.05-.59.09-1.16.25-1.72.45-.23.08-.47.17-.72.28-.13.05-.26.1-.38.15-.4.16-.83.36-1.27.58.07-.39.14-.78.22-1.14.05-.23.1-.46.16-.69.6-2.56,1.69-5.36,3.75-6.85,2.16-1.58,5.09-2.15,7.92-2.54,1.48-.2,2.94-.35,4.25-.56,1.16-.19,2.33-.41,3.48-.7.14-.04.29-.08.43-.12,2.7-.75,5.24-1.94,7.08-3.99-2.17.42-4.45.3-6.56-.37.22,0,2.66-2.4,3.01-2.65,1.16-.85,2.39-1.58,3.68-2.21,2.67-1.28,5.57-2.07,8.52-2.34,5.17-.45,11.03.88,15.22,4.15.55.44,1.08.9,1.57,1.4-7.07.62-14.37,2.18-20.41,6.07-2.98,1.92-5.09,4.19-7,7.11-1.09,1.69-2.12,3.15-2.65,5.13-.25.94-.4,1.91-.45,2.87-.01.41.29,2.06.11,2.32,4.73-6.47,11.83-11.03,19.5-13.37,2.66-.81,5.42-1.38,7.87-2.68,2.46-1.28,4.66-3.48,5.09-6.22,5.47,13.98-.73,24.37-2.04,25.48,4.71-3.08,7.34-8.75,7.83-14.4.18-2.01.09-4.01-.29-5.89,5.92,5.61,6.95,14.55,4.27,22.02-.53,1.48-1.21,2.92-2.03,4.25-2.1,3.4-5.08,6.12-8.26,8.48-.32.23-.62.46-.92.68-.88.67-1.66,1.33-2.31,2.32-.3.45-2.48,4.41-2.48,4.58-1.04-.36-1.08-1.83-1.83-2.63-.52-.57-1.19-.74-1.93-.64-3.35.41-8.35,6.39-9.5,8.04-2.46,3.56-4.22,8.24-2.67,12.39.02.06.04.1.05.14.01.01,0,.03.02.04.01.03.03.08.05.13.03.07.05.12.08.19.18.41.37.8.62,1.19-9.88-1.64-3.73-13.11-11.1-9.89-.16.07-.31.15-.46.24-.18.09-.34.21-.49.35-.08.06-.17.13-.24.2-.22.19-.4.4-.57.62-.08.1-.15.19-.23.3-1.11,1.6-1.71,4.02-2.06,6.79-.04.32-.07.64-.11.97,0,.02-.01.04-.01.08-.03.3-.06.6-.08.91-.03.33-.06.66-.08.99-.58,7.89-.03,17.28-3.06,19.99-.21-2.88-1.62-7.57-4.39-5.85-2.76,1.74-.96,10.2,3.63,18.18,4.59,7.97,6.21,24.22-1.53,27.5.08-6.64-4.14-3.74-5.38,1.37-1.25,5.1-6.22,15.14-19.18,14.5,8.05-3.48,5.78-10.54,11.47-16.09,5.7-5.54-.2-11.77-.2-11.77,0,0-2.46,5.56-2.2,6.93-11.75-8.06,1.77-17.88-.66-24.72-3.02-8.55-8.81,2.26-5.98,12.53-8.39-9.05-.62-26.21,3.27-33.58,1.34-2.53,1.6-4.97,1.22-6.69-.03-.11-.06-.22-.1-.33-.04-.17-.09-.32-.16-.47-.04-.13-.1-.26-.18-.38-.05-.12-.13-.24-.2-.35-.02-.01-.03-.03-.04-.06-.08-.11-.17-.23-.27-.31-.09-.1-.18-.18-.28-.25-.1-.07-.19-.13-.29-.17-.08-.05-.16-.07-.25-.1-.05-.02-.11-.04-.15-.05-.09-.01-.19-.03-.29-.03-.11,0-.21,0-.32.02-.37.06-.76.22-1.16.54-.16.12-.32.27-.48.43-.28.29-.57.64-.85,1.07-.17.27-.35.56-.52.89-.26.49-.52,1.04-.77,1.67-1.06-7.25,2.31-16.37,9.33-23.7Z"/>
  <path class="cls-7" d="M52.58,27.27c-2.41,2.63-4.1,5.8-5.53,9.05-.7,1.6-1.36,3.22-2.14,4.79-.68,1.37-1.51,3.24-2.68,4.27,6.01-5.22,8.41-13.66,16.03-17.1,1.34-.61,2.87-1.01,4.28-.58,1.09.34,2.42,1.62,2.18,2.89-.2,1.06-1.57,2.25-2.34,2.94,3.71-1.64,5.95-5.76,9.77-7.14.78-.28,1.79-.38,2.31.26.39.48.34,1.18.2,1.78-.49,1.99-1.81,3.68-3.29,5.1-1.89,1.81-3.88,3.68-5.98,5.24-1.88,1.39-3.15,3.47-4.61,5.3,4.76-6.01,13.37-7.84,18.28-13.72,1.07-1.28,2.09-2.54,2.79-4.08,1.07-2.37,1.47-5.14,1.07-7.69-.42-2.69-.27-5.41-.9-8.1-.3,1.77-1.64,2.17-2.96,2.94-1.76,1.02-3.31,2.14-5.21,2.96-6.05,2.61-12.47,4.5-17.99,8.1-1.22.79-2.3,1.75-3.28,2.82Z"/>
  <path class="cls-4" d="M16.28,79.24c3.71-9.34,8.99-2.8,5.08,4.56-3.9,7.37-11.67,24.53-3.27,33.58-2.83-10.27,2.96-21.08,5.98-12.54,2.43,6.86-11.09,16.67.66,24.74-.26-1.37,2.2-6.93,2.2-6.93,0,0,5.9,6.23.2,11.77-5.7,5.55-3.43,12.61-11.47,16.09,12.96.65,17.93-9.4,19.18-14.5,1.24-5.11,5.46-8.01,5.38-1.37,7.74-3.29,6.12-19.53,1.53-27.5-4.59-7.98-6.39-16.44-3.63-18.18,2.77-1.73,4.18,2.97,4.39,5.85,5.13-4.58.02-28.22,7.4-31.44,7.37-3.22,1.22,8.26,11.1,9.89-.23-.38-.44-.77-.62-1.19-.07-.17-.13-.33-.21-.51,0-.03-.02-.06-.03-.09,0-.03,0-.06-.02-.08-.12-.34-.21-.69-.27-1.05-.02-.1-.04-.19-.05-.28-.05-.19-.08-.38-.08-.58-.1-.88-.07-1.8.07-2.74.03-.22.07-.45.12-.68.13-.69.33-1.39.58-2.09.08-.24.18-.49.28-.73.09-.23.19-.45.3-.67.32-.7.7-1.4,1.13-2.1.12-.19.23-.38.36-.56.63-.96,1.37-1.91,2.2-2.83.19-.23.4-.44.61-.65.2-.21.42-.43.64-.64.44-.43.9-.84,1.38-1.25.24-.21.49-.42.73-.61.77-.61,1.58-1.19,2.43-1.74.26-.17.53-.33.8-.48.33-.2.66-.39,1-.58.37-.21.75-.41,1.14-.59,1.43-.71,2.95-1.33,4.56-1.85.98-.31,1.93-.71,2.84-1.18.3-.22.61-.44.92-.68,3.18-2.36,6.17-5.08,8.26-8.48.84-1.37,1.55-2.86,2.09-4.41,2.6-7.46,1.53-16.3-4.33-21.86.37,1.88.47,3.88.29,5.89.19,1.13.29,2.27.19,3.41-.17,2.01.27,10.76-9.69,17.08-.22.14-.59.24-.74,0,.33-.95.62-2.08.59-3.08,0-.51-.49-1.77-.2-2.19-2.13,3.03-5.46,4.93-8.59,6.9-2.59,1.62-5.28,2.97-7.42,5.18-2.05,2.11-3.73,4.56-4.96,7.23-.78-1.5-.76-3.31-.32-4.95.3-1.1,3.85-6.8,1.93-7.13-1.27-.22-2.9,1.49-3.59,2.35-.94,1.18-1.6,2.57-2.21,3.94-1.05,2.42-2.14,5.03-4.36,6.45,1.24-1.72,1.97-3.75,2.58-5.78.29-.98.53-2.14-.1-2.95-.61-.79-1.79-.86-2.76-.64-3.64.84-5.69,4-7.25,7.08-1.77,3.48-2.42,7.41-2.65,11.27-.29,4.9.37,9.83,1.76,14.52.08.28-.36.36-.44.09-.24-.82-.83-1.47-1.6-1.85-.78-.39-1.69-.5-2.56-.37-.93.15-1.67.58-2.34,1.22-1.66,1.6-2.5,3.93-2.34,6.16.52,7.4-1.94,11.18-2.66,15.43-3.61-6.77.81-14.09,2.02-18.29.36-1.22.62-2.44.75-3.71.13-1.3,0-2.55-.39-3.79-.33-1.05-1.04-1.96-1.99-2.52-.49-.29-1-.46-1.56-.54-.4-.06-.81-.12-1.17-.32-.87-.51-.7-1.51-.3-2.28.51-.98,1.11-1.92,1.76-2.83,1.29-1.8,2.75-3.48,4.21-5.15,1.44-1.65,2.89-3.31,4.16-5.1,1.27-1.8,2.27-3.71,2.99-5.8,1.06-3.08,1.89-7.36-1.93-8.91-.57-.24-1.2-.38-1.59-.84-.6-.72-.32-1.81.14-2.62,1.1-1.93,2.95-3.24,4.85-4.29,1.9-1.06,3.56-2.33,5.51-3.35.36-.19.72-.38,1-.68.69-.72.67-1.91.19-2.78-.47-.87-1.3-1.49-2.14-2.02-.66-.42-1.65-.86-1.35-1.75.28-.82,1.24-1.57,1.92-2.03.98-.66,2.1-1.1,3.2-1.53,3.31-1.31,6.67-2.66,9.44-4.89,1.5-1.21,2.74-2.55,4.44-3.53.84-.48,1.71-.9,2.61-1.24.66-.25,1.8-.83,2.52-.75-1.81-.18-3.65-.12-5.45.19,2.7-1.01,5.56-1.48,8.42-1.69,1.45-.1,2.89-.14,4.34-.16.72,0,1.45-.03,2.17,0,.34,0,1.29-.07,1.55.14-.81-.63-1.68-1.2-2.61-1.69-3.83-2.04-8.45-2.83-12.61-2.47-2.95.27-5.85,1.06-8.52,2.34-1.29.62-2.52,1.36-3.68,2.21-.35.25-2.79,2.66-3.01,2.65,2.11.67,4.38.79,6.56.37-1.95,2.17-4.66,3.37-7.52,4.11-1.92,1.23-4.77,1.1-7.73,1.26-1.48.08-2.98.22-4.43.66-.66.2-1.3.46-1.92.8-.23.11-.46.25-.68.4-.11.08-.24.17-.36.25-.3.21-.59.46-.85.71-.11.11-.23.22-.34.34-.28.29-.54.6-.78.95-.13.16-.24.33-.35.51-.54.81-1,1.77-1.4,2.9-.13.35-.24.71-.35,1.07-.08.25-.16.52-.22.8-.06.23-.11.46-.16.69-.08.36-.15.74-.22,1.14,7.53-3.7,7.35.5,7.35.5,0,0-15.89,5.08-14.06,21.96,7.68-8.89,11.79,1.49,4.76,8.82-7.02,7.33-10.39,16.45-9.33,23.7ZM28.37,110.35c.48-.85.95-1.69,1.37-2.57.4-.85.69-1.71.94-2.61.25-.92.47-1.79.36-2.75-.09-.94-.46-1.81-1.07-2.53-.18-.23.14-.49.34-.3,1.12,1.14,2.07,2.44,2.85,3.82.72,1.28,1.32,2.63,1.89,3.99.56,1.35,1.08,2.72,1.54,4.11.86,2.59,1.61,5.46.75,8.15.04,1.84-.28,3.62-1.32,5.17-.13.19-.48.08-.45-.17.22-1.4.22-2.84.03-4.24-.16-1.23-.47-2.44-.87-3.61-.39-1.1-.84-2.22-1.47-3.21-.99-1.57-2.62-3.23-4.64-2.9-.2.04-.33-.19-.23-.36Z"/>
  <path class="cls-1" d="M53.29,72.7c-2.61,6.17-2.18,13.58-.99,20.06,1.23,6.02,3.55,11.76,4.8,17.77.15.78.29,1.56.4,2.35.05-1.47.04-2.93.05-4.4-.01-3.36.1-6.73-.24-10.07-.26-2.53-.83-5.03-1.5-7.48-.9-3.48-1.9-6.94-2.51-10.48-.49-2.72-.62-4.92,0-7.74Z"/>
  <path class="cls-1" d="M49.35,134.03c3.12-5.37,3.31-12.09,1.68-17.98-.76-2.55-1.79-5.03-3.02-7.39-.81-1.66-1.88-3.2-2.53-4.94.28,1.85.88,3.64,1.23,5.48.71,3.35,1.24,6.74,1.66,10.14.68,5.68,1.12,7.99.55,13.29-.15,1.01-.33,2.02-.61,3.01.34-.54.7-1.07,1.04-1.62Z"/>
  <path class="cls-1" d="M37.56,141.45c2.56,9.48-6.97,19.61-15.85,19.3,5.43-1.72,8.06-16.84,15.85-19.3Z"/>
  <path class="cls-1" d="M19.26,135.25c-.48,8.73-12,15.99-17.83,13.68.72-6.7,15.97-7.24,17.83-13.68Z"/>
  <path class="cls-1" d="M14.82,85.91c-.97,8.5-8.1,20.83-14.82,19.4,4.14-7.55,10.04-16.69,14.82-19.4Z"/>
  <path class="cls-1" d="M22.48,152.47c-6.6,5.97-7.32,11.86-16.14,9.8,3.45-.78,7.21-10.1,16.14-9.8Z"/>
  <path class="cls-1" d="M8.2,78.35c-4.47-10.87,2.81-29.91,9.56-28.09,6.75,1.82-10.29,14.92-9.56,28.09Z"/>
  <path class="cls-1" d="M66.86,80.71c.12-16.1,9.9-20.73,4.02-22.34-5.88-1.61-8.52,14.19-4.02,22.34Z"/>
  <path class="cls-6" d="M32.86,15.89c-1.29.78-2.45,1.8-3.3,3.05-.92,1.33-1.46,2.92-1.83,4.49-.06.27-.12.55-.17.82,7.53-3.7,7.35.5,7.35.5,0,0-15.89,5.08-14.06,21.96,7.68-8.89,11.79,1.49,4.76,8.82-7.02,7.33-10.39,16.45-9.33,23.7.25-.63.51-1.19.77-1.67.18-.33.35-.62.52-.89,1.07-1.64,2.18-2.21,3.09-2.02.04.01.1.02.15.05.2.05.37.14.54.27.1.07.19.15.28.25.1.08.18.19.27.31.01.02.02.04.04.06.14.21.26.46.38.73.07.15.12.3.16.47.04.11.07.22.1.33.38,1.72.12,4.16-1.22,6.69-3.9,7.37-11.67,24.53-3.27,33.58-2.83-10.27,2.96-21.08,5.98-12.54,2.43,6.86-11.09,16.67.66,24.74-.26-1.37,2.2-6.93,2.2-6.93,0,0,5.9,6.23.2,11.77-5.7,5.55-3.43,12.61-11.47,16.09,12.96.65,17.93-9.4,19.18-14.5,1.24-5.11,5.46-8.01,5.38-1.37,7.74-3.29,6.12-19.53,1.53-27.5-4.59-7.98-6.39-16.44-3.63-18.18,2.77-1.73,4.18,2.97,4.39,5.85,3.03-2.71,2.48-12.1,3.06-19.99.02-.34.05-.66.08-.99.02-.31.05-.62.08-.91,0-.03.01-.05.01-.08.03-.33.06-.65.11-.97,0-.04.01-.09.01-.13.04-.31.08-.6.14-.89.04-.27.08-.54.13-.8.04-.19.07-.36.1-.54.3-1.41.68-2.67,1.23-3.69.05-.11.11-.21.17-.3.07-.15.17-.3.27-.44.08-.11.15-.21.23-.3.17-.23.35-.43.57-.62.07-.07.15-.14.24-.2.16-.14.32-.26.49-.35.15-.09.3-.17.46-.24,7.37-3.22,1.22,8.26,11.1,9.89-.23-.38-.44-.77-.62-1.19-.04-.11-.08-.21-.13-.32-.02-.07-.04-.12-.07-.19-.02-.06-.04-.11-.05-.17-1.45-4.11.29-8.71,2.72-12.23,1.15-1.65,6.15-7.63,9.5-8.04.74-.1,1.41.07,1.93.64.75.8.79,2.27,1.83,2.63,0-.17,2.18-4.12,2.48-4.58.65-.99,1.43-1.65,2.31-2.32.3-.22.61-.44.92-.68,3.18-2.36,6.17-5.08,8.26-8.48.82-1.33,1.5-2.77,2.03-4.25.83-3.13.84-6.2.73-9.47-.1-1.02-.26-2.01-.46-3.01.21,3.97-.52,8.01-2.26,11.58-1.41,2.91-3.62,5.74-6.25,7.61-2.98,2.1-5.69,4.6-8.03,7.4-.26.31-.55.65-.95.74-.2.05-.41.03-.62.01-1.32-.11-2.67-.1-3.98.17-1.4.3-2.41,1-3.55,1.81-3.84,2.77-7.43,6.45-8.45,11.23-.04.18-.23.32-.39.19-1.26-.95-.89-2.56-1.04-3.93-.19-1.69-1.45-3.03-3.09-3.42-3.32-.79-6.33,1.36-8.15,3.97-1.62,2.35-2.43,5.18-2.73,8.01-.59,5.83,2.08,13.47.92,20.31-.04.22-.4.07-.39-.14.05-.84-1.25-4-2.07-4.3-2.28-.83-4.32,1.29-5.37,3.09-1.82,3.15-2,7.13-1.51,10.65.52,3.64,1.73,7.15,2.94,10.61,2.29,6.56,4.96,13.61,2.98,20.61-.09.29-.55.17-.51-.11.09-1.07-.97-1.96-1.97-2.06-1.11-.12-2.2.65-2.85,1.48-.61.76-1.05,1.74-1.43,2.65-.38.9-.66,1.85-.9,2.82-.46,1.86-.73,3.81-1.39,5.62-1.14,3.1-3.34,6.29-6.83,6.77-.2.03-.36-.2-.24-.37,1.96-2.84,3.9-5.71,5.56-8.75,2.94-5.41,4.83-11.69,3.3-17.84-.2-.78-.33-1.6-.85-2.22-.35-.42-.88-.84-1.38-1.07-1.14-.52-2.5-.18-3.49.51-2.24,1.55-2.7,4.45-3.27,6.91-.06.25-.41.17-.46-.04-.64-2.53.04-5.16.94-7.53.82-2.19,1.85-4.3,2.57-6.52.72-2.22,1.25-4.52.61-6.84-.56-2.03-1.87-3.77-4-4.24-1.75-.39-3.74.1-4.74,1.67-.15.24-.53.04-.42-.21.95-2.37,1.9-4.75,2.84-7.13.83-2.12,1.64-4.25,2.42-6.4.72-1.95,1.5-3.94,1.9-5.99.35-1.88.18-3.86-1.13-5.36-1.15-1.29-2.93-1.95-4.49-.99-.22.14-.46-.09-.45-.31.04-2.89,1.18-5.64,2.78-8.01,3.13-4.63,7.81-8.25,9.57-13.74.8-2.47.85-5.32-.49-7.61-1.25-2.12-3.66-3.67-6.18-3.39-.28.02-.44-.24-.32-.48,1.26-2.28,2.78-4.38,4.55-6.29,1.58-1.68,3.35-3.2,5.26-4.48.93-.63,1.89-1.21,2.88-1.72.88-.47,1.8-.85,2.59-1.47.72-.56,1.57-1.44,1.28-2.43-.24-.8-.95-1.31-1.68-1.64-1.48-.68-3.17-.89-4.51-1.89-.18-.14-.18-.35-.03-.51,1.81-1.96,4.65-2.32,7.13-2.93,4.64-1.15,9.52-2.54,13.61-5.11.79-.49,1.25-1.04,1.9-1.67.75-.74,1.65-1.35,2.4-2.1-2.22.45-4.54.38-6.73-.21,4.49-3.91,10.87-5.36,16.7-4.84,1.9.17,3.77.55,5.66.81-3.71-1.98-8.16-2.78-12.22-2.49-.13,0-.25.01-.39.02-2.95.27-5.85,1.06-8.52,2.34-1.29.62-2.52,1.36-3.68,2.21-.35.25-2.79,2.66-3.01,2.65,1.66.52,3.44.72,5.17.56.46-.03.93-.1,1.38-.19-1.85,2.05-4.38,3.24-7.07,3.99-.16.04-.3.08-.44.12-.24.07-.51.29-.75.39-.3.13-.6.23-.92.32-.65.18-1.33.28-2,.34-.69.07-1.34.01-2.03.12-.77.12-1.53.3-2.28.49-2.26.57-4.52,1.25-6.51,2.46Z"/>
  <path class="cls-2" d="M45.35,69.59c.09-1.19.29-2.37.62-3.52.64-2.25,1.75-4.42,3.51-6,.86-.78,1.88-1.4,3.05-1.55,1.18-.15,2.22.5,2.73,1.57.62,1.34.87,2.87,1.2,4.3.37,1.64.73,3.29,1.14,4.93.07.26.47.26.49-.03.17-2.01.56-3.96,1.23-5.87.67-1.89,1.58-3.7,2.69-5.36,1.35-2.02,3.02-3.82,4.93-5.33.79-.63,1.57-1.3,2.44-1.8.62-.37,1.34-.46,2.03-.58.84-.14,1.7-.05,2.49.25.2.07,2.05,1.09,1.87,1.34,1.31-1.83,2.82-3.54,4.46-5.09,1.63-1.54,3.51-2.77,5.14-4.3,2.7-2.5,4.91-5.58,6.14-9.07,1-2.84,1.44-5.84,1.34-8.84.11,3.27.1,6.34-.73,9.47-.53,1.48-1.21,2.92-2.03,4.25-2.1,3.4-5.08,6.12-8.26,8.48-.32.23-.62.46-.92.68-.88.67-1.66,1.33-2.31,2.32-.3.45-2.48,4.41-2.48,4.58-1.04-.36-1.08-1.83-1.83-2.63-.52-.57-1.19-.74-1.93-.64-3.35.41-8.35,6.39-9.5,8.04-2.43,3.52-4.17,8.12-2.72,12.23,0,.06.03.11.05.17.02.06.04.1.05.14.01.01,0,.03.02.04.01.03.03.08.05.13.14.39.48,1.34.7,1.38-9.88-1.64-3.73-13.11-11.1-9.89-.16.07-.31.15-.46.24-.18.09-.34.21-.49.35-.09.06-.17.13-.24.2-.22.19-.4.4-.57.62-.08.1-.15.19-.23.3-.09.14-.2.29-.27.44-.07.1-.13.19-.17.3-.55,1.02-.94,2.28-1.23,3.69-.04.18-.08.35-.1.54-.05.26-.09.53-.13.8-.05.29-.09.58-.14.89,0,.04-.01.09-.01.13-.03.32-.07.64-.11.97,0,.02-.01.04-.01.08-.03.3-.06.6-.08.91-.03.33-.06.65-.08.98-.03-.34-.07-.67-.1-1.01-.12-1.4-.23-2.82-.12-4.21Z"/>
  <path class="cls-2" d="M48.3,7.28c.22,0,2.66-2.4,3.01-2.65,1.16-.85,2.39-1.58,3.68-2.21,2.67-1.28,5.57-2.07,8.52-2.34.13,0,.25-.03.39-.02.03.01.05.03.09.05-.2-.1-1.39.44-1.66.54-.62.2-1.25.42-1.86.64-1.26.46-2.49.97-3.66,1.59-1.16.6-2.26,1.31-3.28,2.13-1.02.8-2.14,1.19-3.24,1.88-.08.04-.17.13-.12.21.02.04.08.06.12.07.26.05,1.15.12,1.92.24.64.1,1.21.23,1.27.43-1.73.17-3.51-.03-5.17-.55Z"/>
  <path class="cls-2" d="M20.84,46.71c-.71-6.57,1.26-11.35,3.93-14.74.4-.51.81-.98,1.24-1.43.22-.23.43-.44.65-.65,3.88-3.75,8.23-5.14,8.24-5.14.03-.01.02-.14-.02-.29-.03-.17-.07-.34-.08-.37-.01-.02,0-.03-.03-.06-.03-.1-.07-.19-.12-.28-.05-.1-.13-.2-.2-.29-.15-.18-.33-.33-.54-.45-.09-.05-.15-.08-.22-.11-.07-.02-.14-.05-.21-.07-.14-.05-.28-.07-.43-.09-.13-.02-.25-.03-.38-.03-.19,0-.35,0-.52.02-.17,0-.33.02-.5.05-.59.09-1.16.25-1.72.45-.24.08-.49.17-.72.28-.13.05-.26.1-.38.15-.4.16-.83.36-1.27.58.07-.39.14-.78.22-1.14.05-.23.1-.46.16-.69.6-2.56,1.69-5.36,3.75-6.85,2.16-1.58,5.09-2.15,7.92-2.54,1.48-.2,2.94-.35,4.25-.56,1.16-.19,2.33-.41,3.48-.7.14-.04.29-.08.43-.12-1.52,1.75-3.87,2.6-6.08,3.13-2.46.6-5.01.9-7.29,2.1-1.22.64-2.29,1.53-3.01,2.72-.09.13-.05.36.13.41,1.89.46,4.27.85,5.28,2.75.42.76.6,1.77.2,2.57-.22.45-.71.78-1.1,1.07-.44.32-.88.64-1.36.89-1.02.53-2.02,1.1-2.99,1.72-.94.61-1.83,1.3-2.75,1.96-1.72,1.25-3.45,2.71-4.61,4.52-1.2,1.89-1.78,4.21-1.39,6.43.02.14.18.21.3.16,2.32-.97,4.94.49,6.26,2.41,1.58,2.31,1.21,5.36.17,7.8-1.17,2.75-3.22,4.94-5.22,7.1-1.88,2.03-3.74,4.12-5.02,6.58-1.34,2.59-2.1,5.47-1.75,8.4.02.11.15.17.25.12,1.45-.63,3.41-.23,4.3,1.14.28.45.43.97.47,1.5-.03-.11-.06-.22-.1-.33-.05-.17-.1-.32-.16-.47-.05-.13-.11-.27-.18-.38-.06-.12-.13-.25-.2-.35-.02-.01-.03-.03-.04-.06-.08-.11-.17-.21-.27-.31-.09-.09-.18-.17-.28-.25-.1-.07-.19-.13-.29-.17-.08-.05-.16-.07-.25-.1-.05-.02-.11-.04-.15-.05-.09-.01-.19-.03-.29-.03-.11,0-.21,0-.32.02-.37.06-.76.22-1.16.54-.16.12-.32.26-.48.43-.28.29-.57.64-.85,1.07-.17.27-.35.56-.52.89-.26.49-.52,1.04-.77,1.67-1.06-7.25,2.31-16.37,9.33-23.7,7.03-7.33,2.92-17.71-4.76-8.82Z"/>
  <path class="cls-2" d="M27.12,134.42c-5.7,5.54-3.43,12.61-11.48,16.08,12.96.65,17.94-9.39,19.18-14.5,1.24-5.1,5.46-8.01,5.39-1.36,7.74-3.29,6.12-19.54,1.53-27.51-4.59-7.97-6.39-16.44-3.63-18.17,2.77-1.73,4.18,2.96,4.39,5.85,1.14-1.02,1.78-2.99,2.15-5.47-.35.7-.76,1.37-1.25,1.99-.06.08-.19.11-.26.01-.64-.88-.81-1.94-1.17-2.95-.29-.81-.58-1.68-1.26-2.24-1.74-1.44-3.62.79-4.27,2.29-.64,1.46-.77,3.1-.67,4.67.12,1.77.53,3.55.98,5.26.53,2.04,1.23,4.02,2.1,5.94.87,1.92,1.93,3.75,2.84,5.65,3.13,6.51,3.12,14.39,0,20.91-.09.2-.35.23-.46.03-.59-1.05-1.39-2.37-2.69-2.57-.31-.05-.65-.05-.95.03-.33.1-.55.35-.77.59-.41.44-.77.91-1.05,1.44-1,1.86-1.21,4.02-1.86,6-.62,1.88-1.55,3.67-2.72,5.27-2.36,3.22-5.71,5.69-9.54,6.86-.14.04-.3-.11-.28-.25.37-2.78,1.61-5.31,3.13-7.64,2.8-4.28,6.45-8.62,6.67-13.97.1-2.4-.56-4.93-2.37-6.62-.27-.25-.53-.36-.87-.2-.25.12-.45.32-.62.53-.4.51-.53,1.14-.73,1.74-.48,1.38-1.01,2.74-1.46,4.13-.03.08-.13.16-.22.14-.98-.17-1.48-1.19-1.76-2.04-.45-1.34-.68-2.78-.75-4.18-.07-1.22,0-2.44.18-3.64.2-1.25.53-2.42,1.02-3.58.98-2.35,2.19-4.71,2.38-7.3.09-1.2,0-2.52-.64-3.57-.53-.89-1.37-1.65-2.34-2.03-2.42-.94-4.27,1.12-5.6,2.85-.15.19-.41.12-.48-.1-.61-2-.54-4.06-.09-6.08.83-3.72,2.79-6.99,4.19-10.49.6-1.51,1.09-3.07,1.29-4.68-.22.74-.52,1.5-.93,2.27-3.91,7.36-11.67,24.52-3.28,33.58-2.83-10.27,2.96-21.08,5.98-12.54,2.43,6.86-11.1,16.67.65,24.72-.25-1.37,2.2-6.93,2.2-6.93,0,0,5.9,6.24.2,11.78Z"/>
  <path class="cls-4" d="M57.49,112.88c.05-1.47.04-2.93.05-4.4,0-.97,0-1.94,0-2.91-.44-1.86-1.04-3.69-1.6-5.53-.92-3-2.06-5.97-2.6-9.07-.85-4.92-.81-9.94-.46-14.92.01-.61.06-1.23.15-1.87.03-.35.06-.71.1-1.06-2.42,6.09-1.99,13.31-.83,19.63,1.23,6.02,3.55,11.76,4.8,17.77.15.78.29,1.56.4,2.35Z"/>
  <path class="cls-4" d="M49.35,134.03c.53-.91.97-1.87,1.34-2.85-.25-.44-.45-.91-.62-1.4-.78-2.16-.54-4.46-.53-6.7,0-2.28-.11-4.58-.53-6.82-.7-3.74-1.91-7.35-3.21-10.91.3,1.29.67,2.56.92,3.86.71,3.35,1.24,6.74,1.66,10.14.68,5.68,1.12,7.99.55,13.29-.15,1.01-.33,2.02-.61,3.01.34-.54.7-1.07,1.04-1.62Z"/>
  <path class="cls-4" d="M37.75,147.09c-1.61,3.11-3.96,5.84-6.84,7.86-.13.14-.29.25-.49.34-.22.1-.35-.2-.16-.33.16-.1.87-1.82,1.03-3.31.14-1.22.35-2.44.68-3.63.3-1.08.72-2.15,1.42-3.04,1.12-1.42,2.59-2.55,4.21-3.36-.02-.06-.03-.12-.04-.18-7.79,2.46-10.42,17.58-15.85,19.3,7.11.25,14.64-6.21,16.03-13.66Z"/>
  <path class="cls-4" d="M10.26,147.53c-1.37.22-2.77.24-4.15.03-.11-.02-.21-.13-.16-.25.57-1.15,1.5-2.07,2.54-2.81,1.07-.76,2.24-1.41,3.35-2.11.62-.39,1.23-.78,1.84-1.19.58-.39,1.21-.76,1.75-1.21.72-.61,1.41-1.3,2.01-2.06-4.57,4.07-15.39,5.36-16,10.98,2.38.94,5.7.29,8.83-1.4Z"/>
  <path class="cls-4" d="M11.07,96.92c-1.53,1.7-3.29,3.15-5.33,4.25-.11.06-.28-.04-.26-.18.28-1.39.79-2.71,1.4-3.98.55-1.14,1.16-2.25,1.74-3.37.61-1.18,1.31-2.33,2.07-3.42.71-1.02,1.55-1.93,2.37-2.86.19-.22.38-.44.57-.66C9.09,90.11,3.8,98.38,0,105.31c4.01.85,8.16-3.19,11.07-8.39Z"/>
  <path class="cls-4" d="M12.32,160.51c-.14.05-.27-.06-.23-.2.26-1.01.69-1.97,1.24-2.85,1.02-1.64,2.42-3.02,4.04-4.02-5.43,2.36-8.33,8.22-11.03,8.84,6.21,1.45,8.41-1.04,11.46-4.72-1.65,1.28-3.51,2.29-5.48,2.97Z"/>
  <path class="cls-4" d="M8.2,78.35c-.38-6.9,4.11-13.77,7.5-19.02-.68.52-1.38,1.01-2.07,1.52-.49.36-.99.73-1.42,1.16-.39.39-.76.81-1.1,1.25-.67.87-1.19,1.85-1.41,2.92-.03.15-.27.25-.34.06-.57-1.47-.27-3.04.17-4.5.38-1.26.84-2.52,1.34-3.73.49-1.18,1.07-2.34,1.86-3.35,1.49-1.92,3.64-3.46,6.06-3.89-.25-.22-.59-.39-1.04-.51-6.75-1.82-14.03,17.22-9.56,28.09Z"/>
  <path class="cls-4" d="M66.86,80.71c.03-3.67.56-6.74,1.29-9.31-.3-.01-.58-.08-.79-.23-.5-.35-.67-.96-.78-1.52-.13-.71-.19-1.41-.25-2.13-.1-1.34-.16-2.7.12-4.02.28-1.33,1-2.44,1.68-3.6.17-.29.33-.51.61-.7.22-.15.46-.27.71-.36.5-.19,1.02-.3,1.54-.43-.04-.01-.07-.02-.11-.03-5.88-1.61-8.52,14.19-4.02,22.34Z"/>
  <path class="cls-6" d="M51.68,84.73c.02-.82.06-1.64.11-2.45.05-.79.04-1.58.06-2.38.02-1.11.1-2.23.23-3.33-1.18,5.26-.72,11.02.22,16.19,1.08,5.25,2.98,10.29,4.27,15.48-.23-1.37-.53-2.72-.87-4.06-.83-3.24-1.88-6.43-2.72-9.67-.43-1.66-.81-3.33-1.07-5.02-.24-1.57-.27-3.17-.23-4.76Z"/>
  <path class="cls-6" d="M49.35,134.03c.31-.54.59-1.1.85-1.67-.39-.77-.74-1.56-1.02-2.38-.01-.04-.02-.07-.03-.11-.04.84-.11,1.75-.22,2.77-.15,1.01-.33,2.02-.61,3.01.34-.54.7-1.07,1.04-1.62Z"/>
  <path class="cls-6" d="M37.08,149.49c-.24.35-.49.7-.75,1.04-.37.49-.76.96-1.17,1.42-.43.49-.94.91-1.43,1.34-2.09,1.81-4.36,3.4-6.69,4.89-.14.09-.32-.12-.21-.25.74-.89,1.15-1.97,1.4-3.08.25-1.11.34-2.25.47-3.38-2.29,4.27-4.3,8.43-6.99,9.28,6.34.22,12.99-4.88,15.36-11.26Z"/>
  <path class="cls-6" d="M6.36,149.05c-.47-.05-.93-.14-1.38-.29-.3-.1-.58-.28-.88-.37-.07-.02-.14-.01-.21-.06-.08-.05-.14-.13-.21-.2-.18-.17-.21-.26-.22-.51,0-.24.05-.48.13-.7.21-.58.53-1.13.88-1.64.31-.44.67-.84,1.06-1.2-2.21,1.26-3.86,2.75-4.09,4.85,1.39.55,3.11.55,4.93.12Z"/>
  <path class="cls-6" d="M7.91,101.47c-1.68,1.37-3.65,2.31-5.89,2.2-.14,0-.24-.19-.15-.31.92-1.15,1.87-2.3,2.57-3.6.66-1.23,1.11-2.56,1.59-3.86.13-.36.27-.73.42-1.09C4.12,98.14,1.88,101.89,0,105.31c2.71.58,5.49-1.09,7.91-3.84Z"/>
  <path class="cls-6" d="M9.29,161.9c-.17,0-.18-.2-.1-.3.57-.64,1.07-1.35,1.49-2.1.21-.38.3-.74.4-1.16.01-.05.02-.1.04-.15-1.88,1.96-3.36,3.74-4.78,4.07,4.42,1.03,6.81.07,8.92-1.9-1.84.94-3.88,1.47-5.96,1.54Z"/>
  <path class="cls-6" d="M7.82,72.19c-.11.14-.36.08-.34-.12.21-2.41.48-4.82.87-7.2.33-2.01.56-4.05,1-6.04.12-.58.27-1.15.43-1.71-2.84,6.13-4.13,15.02-1.57,21.24-.2-3.55.9-7.1,2.48-10.42-.88,1.47-1.74,2.95-2.86,4.26Z"/>
  <path class="cls-6" d="M66.32,74.46c-.45-.48-.68-1.12-.85-1.75-.18-.7-.3-1.42-.4-2.13-.21-1.52-.25-3.07-.11-4.59-.81,4.75-.34,10.68,1.9,14.73.02-2.08.2-3.97.48-5.68-.39-.09-.76-.29-1.02-.57Z"/>
  <path class="cls-5" d="M21.69,124.37c.49,1.2,1.18,2.46,2.33,3.13-.54-.48-.84-1.13-1.16-1.77-.79-1.58-1.17-3.27-1.22-5.05-.02-.36-.03-.8-.04-1.17-.03.15-.05.29-.08.44-.22,1.46-.33,3,.16,4.42Z"/>
  <path class="cls-5" d="M16.65,113.89c-.93-3.66-1.1-6.38-.85-10.04.04-.65.11-1.4.18-2.01-.06.18-.12.36-.18.55-1.48,4.07-1.19,7.69.86,11.5Z"/>
  <path class="cls-5" d="M44.87,119.99c-.03-.37-.07-.81-.11-1.14-.06.69-.12,1.37-.2,2.05-.53,4.27-.83,8.32-3.2,11.93,3.47-3.31,3.9-8.32,3.5-12.84Z"/>
  <path class="cls-5" d="M27.79,135.12c-1.74.94-3.06,3.22-3.43,4.79,1.02-1.68,2.02-3.43,3.43-4.79Z"/>
  <path class="cls-5" d="M20.93,147.23c-.7.9-1.75,1.52-2.59,2.25,1.05-.49,2.12-1.14,2.59-2.25Z"/>
  <path class="cls-5" d="M25.79,32.67c1.41-1.37,3.18-2.48,4.47-3.31,1.24-.85,3.43-2.29,4.78-3.63-1.72,1.03-3.64,1.7-5.28,2.86-1.55,1.07-2.91,2.41-3.97,3.96-.12.19-.36.46,0,.11Z"/>
  <path class="cls-5" d="M22.83,37.08c-.61,1.53-1.14,3.1-1.36,4.73-.18,1.11-.1,2.23-.21,3.34.79-2.48,1.22-5.74,1.58-8.08Z"/>
  <path class="cls-5" d="M30.92,19.63c2.62-3.62,6.34-5.19,11.04-5.89-5.95-.67-9.64.99-11.99,6.66-.18.42-.39.9-.53,1.29.47-.7.97-1.39,1.49-2.06Z"/>
  <path class="cls-5" d="M52.08,60.63c2.7,0,1.73,3.69,2.37,5.4.66,2.51,2.28,4.9,4.72,5.95-2.02-1.45-3.09-3.92-3.63-5.96-.62-1.84-.16-4.44-2.08-5.54-.9-.52-2.06-.03-2.64.68.38-.26.8-.48,1.27-.53Z"/>
  <path class="cls-5" d="M64.01,57.16c1.99-2.05,4.33-3.74,6.57-5.5.58-.44,1.19-.92,1.74-1.35-.22.11-.43.22-.65.32-5.06,2.53-8.63,4.94-10.66,10.47.88-1.37,2.27-3.19,2.99-3.94Z"/>
  <path class="cls-3" d="M82.63,15.8c.84,10.18-3.2,13.88-6.66,17.44,5.28-3.18,9.18-7.25,6.66-17.44Z"/>
  <path class="cls-3" d="M57.38,23.57c4.12-2.82,10.87-4.2,15.63-5.36,1.7-.42,3.4-.92,4.94-1.77,2.31-1.28,4.14-3.32,4.23-6.47-1.09,2.41-2.9,3.29-4.86,4.26-1.96.97-4.08,1.57-6.16,2.27-2.39.8-12.25,3.92-13.77,7.07Z"/>
  <path class="cls-7" d="M59.38,40.06c4.61-3.22,10.7-5.14,13.27-10.55-2.25,2.68-4.38,3.59-7.28,5.3-2.08,1.21-3.84,2.87-5.56,4.55-.38.38-.9.9-1.18,1.21.23-.16.55-.38.75-.51Z"/>
  <path class="cls-7" d="M52.4,36.01c2.54-2.57,5.65-4.94,9.53-6.02-4.93-.01-8.11,2.22-10.36,6.51-.19.33-.37.67-.55,1.01.45-.52.91-1.02,1.38-1.5Z"/>
  <path class="cls-7" d="M49.74,19.39c-.53,1.03-.82,2.17-.65,3.35.07.47.39.98.31,1.46.28-1.6.84-3.14,1.67-4.54.85-1.43,2-2.39,3.1-3.6.84-.92,1.75-1.78,2.73-2.55-1.59.82-3.19,1.66-4.57,2.8-1,.82-1.97,1.89-2.59,3.09Z"/>
  <path class="cls-7" d="M41.19,34.94c1.89-1.01,3.71-2.08,5.07-3.86.98-1.46,1.62-3.21,1.71-4.97-1.14,3.4-4.08,6-6.75,8.43-.39.33-.78.64-1.19.94.39-.18.78-.36,1.16-.55Z"/>
  <path class="cls-7" d="M39.06,53.12c.15-.4.33-.84.48-1.2-.24.36-.47.72-.7,1.09-4.6,7.66-5.31,10.49-5.48,19.51,1.76-6.51,3.29-13.09,5.69-19.4Z"/>
  <path class="cls-7" d="M68.31,67.87c.73-1.83,1.61-3.62,2.15-5.52.19-.78.44-1.63.17-2.43-.15,1.22-.95,2.26-1.34,3.41-.56,1.52-.8,3.15-1.06,4.74l.08-.21Z"/>
  <path class="cls-7" d="M54.46,93.41c.69,2.35,1.82,4.3,2.07,6.68.29-2.43-.48-4.82-1.06-7.16-.79-2.74-1.48-5.54-2.07-8.31.03,2.95.13,5.96,1.05,8.78Z"/>
  <path class="cls-7" d="M49.71,113.28c-.03-.11-.08-.29-.1-.32.06.63.12,1.25.17,1.88.4,5.06,1.15,8.9.73,13.75,1.92-5.43.85-10.02-.8-15.31Z"/>
  <path class="cls-7" d="M15.72,157.95c1.46-1.59,2.98-3.34,5.04-4.64-3.37.78-4.48,2.46-5.8,5.45-.29.51.57-.64.76-.81Z"/>
  <path class="cls-7" d="M8.86,146.54c1.83-.64,3.7-1.3,5.21-2.54,1.89-1.58,3.17-3.82,3.9-6.15-1.02,1.68-1.91,2.51-3.11,3.75-1.67,1.66-3.52,3.11-5.5,4.38-.44.29-.97.61-1.39.84.3-.08.59-.18.88-.27Z"/>
  <path class="cls-7" d="M33.06,151.97c1.18-1.16,2.43-2.31,3.22-3.77.88-1.63,1.19-3.68.49-5.44.07,1.09-.18,1.7-.43,2.66-.76,2.21-1.46,3.35-2.77,5.44-.35.55-.76,1.17-1.12,1.65.21-.17.41-.35.6-.54Z"/>
  <path class="cls-7" d="M7.61,99.04c3.26-2.95,5.49-6.7,5.84-11.14-.74,1.97-1.64,3.34-2.73,5.27-1.08,1.88-2.05,3.82-3.22,5.64-.18.29-.42.62-.59.87.23-.21.46-.42.69-.64Z"/>
  <path class="cls-7" d="M16.17,56.57c1.02-1.33,1.62-2.95,1.87-4.6-1.32,2.42-2.79,3.68-4.05,5.16-1.17,1.35-2.77,3.96-3.24,5.02,1.72-1.94,3.79-3.56,5.42-5.58Z"/>
  <path class="cls-1" d="M69.64,46.96c3.16-1.72,6.71-2.5,9.81-4.4,5.24-3.21,9.14-8.07,9.71-14.36-3.83,5.62-7.43,10.96-13.84,13.89-.1-1.55.13-3.11.66-4.57-3.13,2.92-7.07,4.65-9.72,8.12-2.42,3.16-4.28,6.69-6.36,10.07,2.48-2.64,5.1-5.35,7.95-7.59.56-.44,1.16-.83,1.79-1.17Z"/>
  <path class="cls-1" d="M43.56,56.2c.93-2.33,2.09-4.6,3.33-6.7.74-1.26,1.59-2.49,2.74-3.38-1.45-.35-2.94.49-3.95,1.59-2.24,2.43-3.86,6-4.77,9.16-.95,3.3-1.23,6.83-.85,10.2.09.84.22,1.68.37,2.51.1.57.55,1.61.45,2.15.33-1.73.17-3.41.32-5.16.16-1.91.46-3.8.88-5.67.36-1.58.87-3.17,1.49-4.72Z"/>
  <path class="cls-1" d="M59.33,4.45c2.33-.86,4.63-1.95,7.11-2.32,2.32-.27,4.87-.11,6.89,1.17-1.95-.65-3.64-.35-5.56-.05-2.66.54-5.31,1.17-8.01,1.49-.59.08-1.31.19-1.82.25.47-.18.93-.36,1.4-.54Z"/>
  <path class="cls-1" d="M39.49,19.2c.64.25,1.31.45,1.98.58.19.04.45.02.48-.17.01-.07-.02-.14-.05-.21-.18-.38-.42-.82-.23-1.21.08-.16.23-.28.38-.39,1.03-.75,2.43-1.33,3.63-1.74,1.29-.44,2.57-1.07,3.94-1.24-2.21.26-4.42.55-6.56,1.15-1.31.37-3.17.71-4.18,1.7-.29.28-.41.78-.15,1.09.12.14.28.22.45.29.1.05.21.09.31.13Z"/>
  <path class="cls-1" d="M31.79,37.27c.65-1.35,2.21-3.44,2.51-3.69,1.3-1.36,2.86-2.36,3.79-2.99,1.65-1.3,8.57-5.23,7.1-7.61.62,1.83-3.99,3.31-5.24,4.09-1.84.97-3.69,2.01-5.18,3.48-1.99,1.83-2.78,4.48-3.35,7.04-.05.23-.12.52-.16.72.17-.36.33-.69.51-1.03Z"/>
  <path class="cls-1" d="M32.03,55.46c4.04-4.58,7.66-9.92,3.17-15.58-.1-.14-.6-.79-.53-.65.3.64.48,1.16.63,1.79.64,2.66.17,5.27-.84,8.36-.69,2.07-1.38,4.16-2.44,6.09Z"/>
  <path class="cls-1" d="M23.54,92.89c1.61-6.97,10.25-16.2,3.71-22.62-.17-.17-.39-.37-.55-.5.17.23.35.48.49.71,2.62,3.96.44,8-1.07,11.94-1.3,3.36-2.34,6.87-2.59,10.48Z"/>
  <path class="cls-1" d="M33.9,83.52c.55-1.18,1.35-2.59,2.55-3.5,1.3-.81,2.97-1.01,4.12.18-.94-1.61-3.02-2.07-4.6-1.12-1.71,1.08-2.43,3.15-2.79,5.05-.12.63-.23,1.35-.3,1.94.3-.87.63-1.72,1.01-2.56Z"/>
  <path class="cls-1" d="M31.33,134.47c-1.55,2.79-3.19,5.65-5.08,8.18,3.38-2.4,4.19-4.24,5.08-8.18Z"/>
  <path class="cls-1" d="M39.72,118.36c-.12-1.49-.82-4.15-1.2-4.94.22,2.24.28,3.66.31,5.82.02,1.78.16,3.59-.17,5.36.89-1.93,1.21-4.12,1.05-6.23Z"/>
  <path class="cls-1" d="M33.86,100.6c-.75-2.47-1.02-5.18-1.12-7.24-.14-1.82-.22-2.78-.27-4.46-.01-.54,0-1.15.06-1.65-.08.24-.16.47-.23.71-1.51,5.38-1.3,7.85,1.55,12.64Z"/>
  <path class="cls-1" d="M24.87,117.05c.31-.48.66-.94,1.02-1.39.47-.57.87-1.22,1.51-1.62.86-.5,1.68-.85,2.7-.85-1.08-.28-2.33-.18-3.29.43-.91.7-1.28,1.88-1.75,2.88-.05.12-.28.69-.19.55Z"/>
  <path class="cls-4" d="M41.52,118.17c.42,3.47.67,5.74.33,9.32,1.37-4.48,2.01-9.4.8-13.99-.73-2.66-2.23-5-3.58-7.38-.28-.48-.59-1.02-.85-1.46.3.85.57,1.71.84,2.57,1.13,3.57,2.04,7.21,2.47,10.94Z"/>
  <path class="cls-4" d="M27.48,117.72c1.53-.72,2.35-.1,2.92.99,1.07,1.86,1.24,4.03,1.45,6.39.27-1.86.71-3.81.1-5.65-.56-1.73-2.16-3.4-4.06-2.38-.6.28-1.22.99-1.5,1.42.35-.29.69-.56,1.09-.77Z"/>
  <path class="cls-4" d="M24.53,142.87c1.48-2.5,3.45-4.75,4.46-7.51-.95,1.51-1.97,2.36-3.1,3.72-.95,1.13-1.74,2.42-2.22,3.82-.34,1.14-.61,2.94-.67,3.82.47-1.31.98-2.86,1.53-3.86Z"/>
  <path class="cls-4" d="M24.46,99.36c.9.38,1.39,1.23,1.67,2.11.37.88.51,1.85.56,2.85.04.54.08,1.71-.03,2.57.45-1.53.84-3.18.56-4.78-.26-.88-.7-1.77-1.4-2.38-.56-.46-1.31-.6-2.01-.73-.06-.02-.24-.04-.2-.03.28.11.61.26.85.38Z"/>
  <path class="cls-4" d="M17.75,100.81c-.15-1.98.47-3.62,1.07-5.5,1.17-3.26,2.6-6.43,3.6-9.75.19-.63.5-1.51.63-2.01-.27.49-.54.97-.82,1.45-1.35,2.42-3.02,4.72-3.92,7.36-.78,2.7-1.29,5.68-.55,8.44Z"/>
  <path class="cls-4" d="M23.77,81.85c1.31-2.94,1.69-4.42-.37-7.12-.45-.69.14.52.21.84.79,1.86.56,4.23.17,6.29Z"/>
  <path class="cls-4" d="M21.91,62.67c.13-.29.31-.62.44-.87-.21.25-.42.51-.61.78-1.02,1.41-1.89,2.93-2.53,4.54-.58,1.91-.81,3.97-.46,5.95.25-3.58,1.69-7.03,3.16-10.4Z"/>
  <path class="cls-4" d="M44.28,71.69c.17-1.81.39-3.82.73-5.15.86-2.67,1.54-4.34,3.23-6.46.91-1.15,3.33-3.07,5.39-2.36.54.14,1.47.33,1.91.89-.43-.78-1.3-1.19-2.07-1.57-2.32-1.08-5,.45-6.62,2.13-1.98,2.08-2.96,4.98-3.17,7.81-.01,1.99.24,4.03.5,5.96.03-.42.06-.84.1-1.26Z"/>
  <path class="cls-4" d="M28.68,32.7c.19-.22.56-.61.76-.83-.22.15-.44.31-.66.47-2.91,1.95-5.14,5.03-5.16,8.64,1.01-3.02,2.84-5.67,5.06-8.27Z"/>
  <path class="cls-2" d="M24.84,159.89c2.97-.7,6.01-2.09,7.77-4.68-.62.67-1.46,1.12-2.11,1.57-1.65,1.04-3.38,1.95-5.15,2.78-.3.15-.67.32-.93.44.14-.04.28-.07.42-.11Z"/>
  <path class="cls-2" d="M28.05,153.24c-.37.79-.66,1.36-1.02,2.05-.59,1.11-.74,1.54-1.48,2.76-.55.83-1.09,1.68-1.99,2.16,2.95-.92,3.98-4.24,4.49-6.97Z"/>
  <path class="cls-2" d="M13.26,161.46c-1.82.53-3.74.67-5.6.75,1.88.55,3.92.25,5.6-.75Z"/>
  <path class="cls-2" d="M10.1,159.59c-.52.72-.93,1.21-1.5,1.78-.36.34-.73.7-1.23.8,1.39.03,2.43-1.59,2.73-2.59Z"/>
  <path class="cls-2" d="M4.37,145.17c-1.26.76-2.18,2.05-2.31,3.54.59-1.24,1.47-2.49,2.31-3.54Z"/>
  <path class="cls-2" d="M.82,104.61c.7.09,1.42.13,2.12-.01.86-.21,1.72-.65,2.33-1.3-1.32.76-2.85,1-4.37,1.3-.04,0-.17.01-.08.02Z"/>
  <path class="cls-2" d="M7.38,70.99c.11-2.3.49-4.58.64-6.88-.35,1.2-.74,2.4-.87,3.65-.1.95.06,2.67.22,3.23Z"/>
  <path class="cls-2" d="M7.91,76.56c-.02-1.24.24-2.73.26-3.83-.43,1.24-.64,2.55-.26,3.83Z"/>
  <path class="cls-2" d="M66.33,77.58c-.45-1.8-.79-3.71-1.25-5.46-.04,1.91.26,3.81,1.25,5.46Z"/>
  <path class="cls-2" d="M54.67,100.22c.75,2.1,1.6,4.01,2.09,6.07-.25-4.67-2.33-8.97-3.86-13.32.39,2.46.93,4.9,1.76,7.25Z"/>
  <path class="cls-2" d="M47.76,112.61c.33,2.82.95,5.6,1.23,8.42.35-2.81-.33-5.93-1.23-8.42Z"/>
  <path class="cls-4" d="M23.27,61.71c.55-.66,1.12-1.31,1.7-1.94,2.34-2.42,4.92-4.9,5.83-8.26.77-2.77.45-6.76-1.79-8.78.93,1.26,1.02,2.76,1.08,4.15.01,3.52-1.3,6.11-3.35,9.21-1.21,1.82-2.51,3.71-3.47,5.62Z"/>
</svg>