<svg width="399" height="399" viewBox="70 78 170 399" fill="none" xmlns="http://www.w3.org/2000/svg">
<mask id="mask0_45_1010" style="mask-type:alpha" maskUnits="userSpaceOnUse" x="30" y="77" width="399" height="352">
<mask id="mask1_45_1010" style="mask-type:luminance" maskUnits="userSpaceOnUse" x="30" y="77" width="399" height="352">
<path d="M428.986 428.982L30.03 428.982L30.03 77.22L428.986 77.22L428.986 428.982Z" fill="white"/>
</mask>
<g mask="url(#mask1_45_1010)">
<path d="M428.986 428.997L30.0174 428.997L30.0174 77.2199L428.986 77.2199L428.986 428.997Z" fill="white"/>
</g>
</mask>
<g mask="url(#mask0_45_1010)">
<path fill-rule="evenodd" clip-rule="evenodd" d="M265.85 213.102L267.812 211.536C269.703 210.027 269.775 209.821 269.779 205.891C269.78 203.648 270.18 198.274 270.661 193.948C271.143 189.623 271.927 183.843 272.4 181.106C273.18 176.603 273.627 175.574 277.08 170.328C279.179 167.137 281.241 164.45 281.66 164.355C282.078 164.261 282.703 165.101 283.457 165.811C285.823 168.33 287.063 169.391 290.347 170.526C292.531 170.935 290.736 168.253 289.175 165.172C288.35 163.544 287.03 161.191 286.241 159.943L284.809 157.673L286.872 153.234C288.005 150.793 289.704 146.829 290.645 144.427C291.586 142.023 293.435 136.658 294.755 132.504C296.074 128.349 297.154 124.474 297.154 123.892C297.154 123.309 297.538 122.686 298.006 122.506C298.533 122.305 301.108 124.097 304.743 127.197C307.01 128.948 311.52 131.936 314.712 132.953C317.904 133.97 309.548 125.552 307.602 123.638L299.323 115.493L300.255 111.17C300.768 108.793 301.476 104.882 301.83 102.478C302.183 100.075 302.62 92.0554 302.802 84.6572C303.073 73.6427 302.987 71.0733 302.328 70.4716C301.886 70.0677 298.509 68.4879 294.824 66.9606C291.372 65.5295 288.698 64.4587 288.32 64.3477C288.231 64.4049 288.171 64.5113 288.104 64.6028C288.137 65.0833 288.388 67.1277 288.756 69.8527C289.167 72.8968 289.52 79.977 289.542 85.5861C289.564 91.2454 289.194 99.0246 288.712 103.064C288.235 107.068 287.629 111.12 287.366 112.07C286.979 113.464 286.277 114.033 283.719 115.028C281.977 115.705 276.07 117.902 270.594 119.91C265.117 121.917 260.308 123.763 259.908 124.011C259.324 124.371 256.365 125.22 256.956 126.167C257.442 126.931 260.805 126.785 263.323 126.005C264.788 125.551 270.256 124.101 275.473 122.782C280.691 121.463 285.095 120.52 285.261 120.686C285.427 120.852 285.032 123.066 284.384 125.604C283.735 128.144 282.133 133.353 280.823 137.178C279.514 141.004 276.275 148.592 273.625 154.038C270.877 159.689 266.672 167.109 263.834 171.313C261.097 175.367 257.025 180.872 254.786 183.548C252.546 186.223 248.528 190.771 245.858 193.655C243.188 196.539 240.526 199.325 239.943 199.847C238.96 200.725 238.937 201.124 239.641 205.289L240.399 209.782L245.327 206.132C248.038 204.124 253.161 199.643 256.714 196.175C260.266 192.707 263.439 189.87 263.765 189.87C264.091 189.87 264.528 191.875 264.735 194.327C264.942 196.778 265.115 200.645 265.117 202.92C265.119 205.196 265.286 208.416 265.486 210.078L265.85 213.101V213.102Z" fill="#502D16"/>
<path fill-rule="evenodd" clip-rule="evenodd" d="M193.747 284.253C193.841 284.253 194.644 282.221 195.531 279.738C196.419 277.254 197.907 273.256 198.839 270.853C199.77 268.45 201.843 263.873 203.446 260.68C205.047 257.488 207.785 252.688 209.529 250.012C211.274 247.336 214.702 242.658 217.148 239.618C221.581 234.106 221.596 234.075 221.653 230.477L221.711 226.867H217.778C215.548 226.867 214.135 227.176 213.839 227.449C208.475 236.218 204.341 240.017 201.371 241.972C196.501 244.643 182.449 244.08 177.869 244.071C170.274 244.13 156.633 243.857 160.463 245.703C164.013 247.224 172.49 248.962 181.51 249.297C193.337 249.297 198.697 249.492 198.697 249.921C198.697 250.264 196.302 254.91 193.377 260.245C190.452 265.581 187.59 271.038 187.018 272.372L185.978 274.798L188 276.758C189.112 277.835 190.821 279.963 191.798 281.485C192.775 283.006 193.652 284.252 193.746 284.252L193.747 284.253Z" fill="#502D16"/>
<path fill-rule="evenodd" clip-rule="evenodd" d="M104.443 350.661C104.853 350.657 107.942 347.322 111.307 343.25C114.671 339.179 121.545 331.711 126.582 326.654C132.405 320.81 136.171 317.461 136.924 317.461C137.95 317.461 138.107 317.835 138.107 320.283C138.107 321.836 138.278 325.899 138.487 329.314C138.824 334.827 138.942 336.702 139.943 337.703C140.433 338.193 140.878 335.292 141.02 334.342C141.116 333.699 141.934 329.594 143.052 325.235C144.169 320.876 145.699 315.967 146.451 314.327C147.204 312.686 148.846 310.276 150.1 308.968C151.355 307.661 153.167 306.057 154.129 305.402C155.09 304.749 157.58 303.61 159.664 302.872C161.747 302.134 163.529 301.475 163.626 301.407C163.722 301.34 163.028 300.065 162.083 298.575C161.137 297.084 159.905 294.166 159.343 292.091C158.782 290.014 158.165 288.48 157.973 288.679C157.781 288.879 153.168 293.29 147.72 298.481C142.272 303.673 135.85 309.739 133.446 311.963C131.043 314.187 126.848 318.435 124.124 321.401C121.401 324.367 118.899 327.12 118.566 327.518C118.234 327.916 116.372 330.339 114.43 332.902C112.487 335.465 109.141 340.156 106.994 343.325C104.847 346.494 103.225 349.444 103.392 349.879C103.559 350.315 104.032 350.667 104.443 350.663V350.661Z" fill="#502D16"/>
<path fill-rule="evenodd" clip-rule="evenodd" d="M313.331 177.724L313.127 174.168C313.046 172.786 314.095 171.61 315.477 171.53C316.859 171.45 318.035 172.499 318.115 173.881L318.359 178.115L321.829 174.789C323.776 172.924 325.63 170.853 325.952 170.186C326.272 169.52 326.4 167.817 326.234 166.401C326.069 164.984 325.477 163.164 324.919 162.355C324.361 161.547 323.491 160.825 322.987 160.753C322.482 160.679 321.237 159.986 320.22 159.21C319.205 158.435 318.04 157.738 317.634 157.66C317.228 157.584 315.798 157.895 314.456 158.351C313.099 158.814 311.462 159.95 310.766 160.91C310.079 161.86 309.309 163.943 309.056 165.54C308.664 168.026 308.877 169.045 310.543 172.639C311.613 174.946 312.779 177.155 313.133 177.549C313.207 177.629 313.271 177.687 313.33 177.724H313.331Z" fill="#E66591"/>
<path fill-rule="evenodd" clip-rule="evenodd" d="M299.693 187.772C300.814 187.768 302.18 187.577 304.097 187.18C306.514 186.681 309.137 185.934 309.927 185.52L310.995 184.961L305.2 183.498C303.858 183.159 303.05 181.806 303.389 180.464C303.727 179.122 305.081 178.314 306.423 178.653L310.366 179.648C310.111 179.015 309.621 177.918 309.055 176.722C308.229 174.977 306.653 172.862 305.552 172.022C304.45 171.182 302.701 170.299 301.664 170.061C300.627 169.822 299.123 169.744 298.322 169.887C297.521 170.03 295.883 170.561 294.681 171.067C292.704 171.9 292.496 172.197 292.496 174.19C292.496 175.881 292.224 176.478 291.331 176.762C290.581 177 290.165 177.644 290.165 178.567C290.165 179.356 290.523 180.858 290.96 181.905C291.397 182.952 292.585 184.505 293.601 185.36C294.615 186.215 296.404 187.177 297.575 187.5C298.17 187.664 298.775 187.756 299.473 187.77C299.546 187.773 299.619 187.773 299.694 187.773L299.693 187.772Z" fill="#E66591"/>
<path fill-rule="evenodd" clip-rule="evenodd" d="M332.707 187.84C332.791 187.84 332.875 187.84 332.959 187.838C333.763 187.82 334.563 187.696 335.596 187.482C338.021 186.979 339.331 186.286 340.99 184.626C342.303 183.312 343.182 181.874 343.182 181.038C343.182 180.27 342.777 179.065 342.281 178.358C341.755 177.607 341.452 176.176 341.553 174.919C341.703 173.036 341.476 172.595 339.745 171.414C338.449 170.529 336.921 170.062 335.317 170.062C333.97 170.062 331.976 170.36 330.887 170.726C329.798 171.091 328.282 171.943 327.518 172.619C326.755 173.295 324.985 175.622 323.586 177.788C322.506 179.459 321.58 180.972 321.212 181.651L326.381 179.074C327.62 178.456 329.114 178.956 329.732 180.195C330.349 181.434 329.85 182.928 328.611 183.546L323.904 185.893C324.808 186.175 326.229 186.572 327.783 186.97C330.107 187.565 331.443 187.835 332.706 187.843L332.707 187.84Z" fill="#E66591"/>
<path fill-rule="evenodd" clip-rule="evenodd" d="M198.351 189.006C199.531 188.631 201.742 187.711 204.115 186.586C207.383 185.037 211.369 183.019 212.97 182.103C214.572 181.187 216.508 179.872 217.271 179.181C218.034 178.491 219.277 176.616 220.032 175.014C220.932 173.108 221.409 171.035 221.412 169.019C221.417 167.085 220.988 165.093 220.261 163.67C219.625 162.423 218.773 161.191 218.368 160.932C217.963 160.674 216.205 160.328 214.461 160.165C211.411 159.879 211.272 159.789 210.771 157.827C210.483 156.706 209.813 155.298 209.28 154.7C208.747 154.101 207.786 153.397 207.145 153.134C206.505 152.872 204.67 152.646 203.067 152.632C201.404 152.62 199.154 153.073 197.823 153.692C196.542 154.288 194.522 155.789 193.337 157.029C192.152 158.269 190.582 160.594 189.85 162.196C188.808 164.477 188.524 166.12 188.542 169.77C188.559 173.321 189.009 175.879 190.435 180.508C191.343 183.459 192.177 186.005 192.439 186.64L197.372 177.136C198.181 175.578 200.087 174.975 201.645 175.784C203.203 176.592 203.807 178.497 202.997 180.055L198.352 189.005L198.351 189.006Z" fill="#E66591"/>
<path fill-rule="evenodd" clip-rule="evenodd" d="M184.348 193.084L175.21 185.845C173.834 184.755 173.604 182.77 174.695 181.394C175.785 180.018 177.77 179.788 179.146 180.878L186.815 186.955C186.821 186.955 186.829 186.957 186.835 186.957C187.269 186.957 187.625 186.76 187.624 186.52C187.624 186.28 187.232 183.723 186.755 180.84C186.278 177.956 185.513 174.211 185.057 172.517C184.599 170.823 183.382 168.121 182.35 166.513C181.318 164.904 179.647 162.958 178.636 162.187C177.624 161.416 175.892 160.392 174.785 159.912C173.678 159.431 171.229 159.027 169.344 159.015C166.876 159 165.377 159.326 163.986 160.186C162.923 160.843 161.927 161.826 161.774 162.37C161.621 162.916 161.313 164.54 161.09 165.983C160.867 167.426 160.39 168.797 160.028 169.033C159.667 169.269 158.77 169.465 158.034 169.471C157.299 169.476 156.02 170.157 155.193 170.985C153.797 172.38 153.708 172.777 153.973 176.476C154.177 179.328 154.681 181.179 155.744 182.982C156.561 184.367 157.974 186.209 158.883 187.073C159.793 187.937 161.717 189.156 163.16 189.782C164.602 190.407 167.617 191.212 169.86 191.569C172.103 191.925 176.429 192.437 179.473 192.705C181.707 192.9 183.5 193.039 184.35 193.087L184.348 193.084Z" fill="#E66591"/>
<path fill-rule="evenodd" clip-rule="evenodd" d="M303.742 209.097C304.169 209.097 305.822 208.709 307.416 208.237C309.009 207.763 310.991 206.649 311.82 205.761C312.649 204.872 313.622 203.573 313.981 202.872C314.351 202.152 314.614 198.993 314.585 195.59C314.571 193.942 314.538 192.746 314.483 191.96L311.193 196.284C310.355 197.386 308.793 197.597 307.691 196.76C306.59 195.923 306.378 194.36 307.215 193.258L310.399 189.073L307.737 189.668C305.923 190.073 303.408 190.568 302.15 190.765C300.669 191 299.195 191.793 297.978 193.01C296.651 194.338 295.984 195.655 295.719 197.48C295.479 199.128 295.639 200.91 296.16 202.396C296.837 204.328 297.295 204.777 298.824 205.019C300.113 205.221 301.018 205.882 301.818 207.204C302.448 208.245 303.314 209.097 303.741 209.097H303.742Z" fill="#E66591"/>
<path fill-rule="evenodd" clip-rule="evenodd" d="M327.984 209.097C329.303 209.097 329.901 208.713 330.482 207.494C331.079 206.241 331.715 205.854 333.394 205.713C335.277 205.556 335.624 205.279 336.225 203.46C336.601 202.32 336.789 200.139 336.643 198.616C336.496 197.092 335.815 195.058 335.13 194.094C334.444 193.132 333.026 191.939 331.978 191.443C330.931 190.947 328.238 190.149 325.995 189.671C324.163 189.279 323.086 189.048 322.487 188.92L325.161 193.87C325.728 194.919 325.34 196.22 324.291 196.787C323.242 197.354 321.941 196.966 321.374 195.917L318.242 190.122L318.017 191.391C317.795 192.637 317.6 194.836 317.584 196.278C317.566 197.72 317.828 199.89 318.165 201.1C318.501 202.311 319.61 204.25 320.628 205.411C321.647 206.571 323.328 207.875 324.364 208.308C325.4 208.74 327.028 209.095 327.983 209.095L327.984 209.097Z" fill="#E66591"/>
<path fill-rule="evenodd" clip-rule="evenodd" d="M218.847 218.287C220.241 218.285 221.872 218.038 223.515 217.569C225.406 217.028 227.929 215.951 229.124 215.173C230.318 214.395 231.689 213.158 232.17 212.422C232.904 211.303 232.938 210.509 232.38 207.509L231.715 203.932L233.558 201.832C234.987 200.205 235.401 199.196 235.401 197.341C235.401 196.026 234.811 193.766 234.09 192.321C233.369 190.875 231.826 188.892 230.66 187.913C229.494 186.934 227.659 185.8 226.582 185.396C225.47 184.977 222.733 184.721 220.253 184.804C216.03 184.945 215.617 185.096 207.891 189.303C203.495 191.698 199.89 193.82 199.881 194.019C199.881 194.019 199.881 194.019 199.881 194.02L209.815 195.472C211.395 195.703 212.481 197.16 212.251 198.74C212.02 200.32 210.562 201.407 208.982 201.176L198.915 199.705C199.11 200.276 199.871 201.501 200.874 202.817C202.161 204.508 203.911 207.015 204.763 208.389C205.616 209.763 207.269 211.944 208.437 213.237C209.606 214.531 211.561 216.099 212.784 216.723C214.006 217.346 216.147 218.013 217.542 218.204C217.946 218.259 218.384 218.287 218.848 218.285L218.847 218.287Z" fill="#E66591"/>
<path fill-rule="evenodd" clip-rule="evenodd" d="M165.003 224.091C165.433 224.088 165.834 224.058 166.198 224C167.469 223.796 169.493 223.128 170.695 222.515C171.897 221.902 173.707 220.46 174.716 219.311C175.725 218.161 177.095 216.154 177.759 214.852C178.424 213.549 179.998 210.799 181.259 208.741C182.078 207.403 182.795 206.174 183.2 205.426L177.029 208.828C175.477 209.684 173.537 209.123 172.681 207.571C171.825 206.018 172.386 204.078 173.938 203.221L183.567 197.912C182.714 197.671 180.355 197.242 178.014 196.905C175.451 196.538 171.125 195.732 168.401 195.115C165.367 194.427 162.434 194.116 160.827 194.311C159.386 194.486 157.128 195.1 155.812 195.677C154.495 196.253 152.703 197.661 151.831 198.807C150.958 199.952 149.872 202.12 149.419 203.625C148.797 205.695 148.743 206.908 149.199 208.604C149.555 209.926 150.76 211.765 152.136 213.087C154.146 215.019 154.448 215.631 154.32 217.526C154.2 219.304 154.478 219.987 155.773 221.101C156.654 221.858 158.839 222.904 160.63 223.424C162.168 223.872 163.713 224.104 165.003 224.094V224.091Z" fill="#E66591"/>
<path fill-rule="evenodd" clip-rule="evenodd" d="M193.845 237.061C194.775 237.061 195.289 236.521 195.785 235.018C196.156 233.893 196.946 232.714 197.54 232.397C198.134 232.079 199.375 231.818 200.297 231.818C201.368 231.818 202.527 231.238 203.503 230.216C204.344 229.335 205.329 227.828 205.692 226.865C206.056 225.905 206.354 223.74 206.354 222.057C206.354 220.023 205.873 217.97 204.922 215.94C204.135 214.259 201.583 210.328 199.249 207.204C197.355 204.666 195.666 202.578 195.025 201.956L195.849 212.766C195.971 214.358 194.787 215.738 193.194 215.859C191.602 215.98 190.222 214.796 190.101 213.204L189.283 202.471C188.593 203.141 186.593 207.351 185.519 209.148C183.718 211.838 181.49 215.454 180.567 217.185C179.643 218.915 178.894 221.146 178.901 222.142C178.908 223.138 179.406 225.037 180.008 226.363C180.61 227.689 182.112 229.893 183.345 231.261C184.607 232.66 187.117 234.473 189.084 235.404C191.007 236.315 193.15 237.061 193.845 237.061Z" fill="#E66591"/>
<path fill-rule="evenodd" clip-rule="evenodd" d="M272.589 245.033C273.267 244.914 274.295 244.667 275.411 244.346C277.277 243.807 280.901 242.558 283.465 241.572C286.029 240.585 288.953 239.173 289.964 238.432C290.975 237.692 292.382 236.148 293.092 235C293.801 233.853 294.599 231.946 294.867 230.764C295.162 229.456 295.103 227.589 294.716 225.993C294.366 224.551 293.707 222.939 293.253 222.413C292.798 221.886 291.268 221.28 289.853 221.069C287.437 220.706 287.24 220.537 286.636 218.294C286.283 216.979 285.601 215.305 285.121 214.576C284.642 213.844 283.681 213.135 282.984 213C282.288 212.865 281.306 212.718 280.804 212.674C280.302 212.631 278.507 213.005 276.816 213.508C274.903 214.076 272.797 215.292 271.241 216.725C269.866 217.993 268.122 220.401 267.364 222.076C266.132 224.802 265.987 225.959 265.987 233.103C265.987 238.089 266.226 241.322 266.622 241.719C266.724 241.822 266.833 241.877 266.954 241.885L272.909 234.454C274.012 233.077 276.008 232.857 277.385 233.959C278.761 235.062 278.982 237.059 277.879 238.435L272.588 245.037L272.589 245.033Z" fill="#E66591"/>
<path fill-rule="evenodd" clip-rule="evenodd" d="M256.563 247.404C256.969 247.406 257.23 247.396 257.314 247.371L249.981 241.117C248.598 239.938 248.436 237.876 249.614 236.493C250.792 235.11 252.855 234.947 254.238 236.126L261.476 242.299C262.232 242.225 262.297 241.138 262.088 234.293C261.866 226.998 261.705 226.012 260.277 223.249C259.416 221.581 258.12 219.654 257.397 218.966C256.674 218.279 255.231 217.057 254.19 216.25C253.149 215.445 251.314 214.434 250.112 214.005C248.909 213.576 246.799 213.213 245.421 213.199C244.044 213.186 242.208 213.54 241.342 213.987C240.476 214.435 239.244 215.377 238.604 216.082C237.963 216.787 237.179 218.573 236.857 220.051C236.339 222.442 236.067 222.781 234.385 223.126C233.345 223.339 232.114 223.829 231.647 224.216C231.182 224.603 230.495 225.84 230.125 226.965C229.753 228.09 229.55 230.789 229.673 232.963C229.863 236.317 230.211 237.39 231.979 240.052C233.399 242.191 234.976 243.687 236.934 244.752C239.448 246.121 240.877 246.395 248.449 246.961C252.015 247.228 255.158 247.395 256.564 247.404H256.563Z" fill="#E66591"/>
<path fill-rule="evenodd" clip-rule="evenodd" d="M117.778 248.635L116.244 240.877C115.96 239.445 116.886 238.063 118.318 237.779C119.751 237.496 121.132 238.421 121.416 239.854L123.066 248.198C123.55 247.649 124.2 247.141 125.219 245.444C126.321 243.61 127.889 240.314 128.911 238.237C130.103 235.814 130.851 233.307 130.999 231.246C131.208 228.349 131.034 227.746 129.242 225.149C127.755 222.994 126.309 221.783 123.504 220.347C121.441 219.291 119.022 218.425 118.128 218.423C117.235 218.422 115.47 218.947 114.208 219.59C112.946 220.234 111.522 221.516 111.045 222.441C110.568 223.364 109.402 224.39 108.454 224.719C107.506 225.05 106.252 226.049 105.669 226.941C104.936 228.061 104.607 229.655 104.609 232.084C104.612 234.852 104.943 236.167 106.163 238.228C107.017 239.67 108.72 241.805 109.948 242.974C111.175 244.142 113.664 246.037 115.478 247.182L117.779 248.636L117.778 248.635Z" fill="#E66591"/>
<path fill-rule="evenodd" clip-rule="evenodd" d="M147.448 257.255C147.546 257.256 147.639 257.256 147.727 257.255C147.927 257.249 148.099 257.232 148.242 257.203C149.22 257.008 151.002 256.167 152.202 255.336C153.401 254.505 154.916 252.922 155.567 251.82C156.218 250.716 156.751 248.942 156.751 247.878C156.751 246.815 156.344 245.605 155.845 245.192C155.347 244.779 154.673 243.945 154.351 243.34C153.906 242.51 154.052 241.748 154.946 240.233L156.13 238.225L154.342 236.189C153.359 235.069 151.729 233.899 150.72 233.588C149.711 233.276 146.919 233.101 144.516 233.199C141.502 233.32 139.423 233.751 137.815 234.585C136.534 235.251 134.654 236.671 133.64 237.74C132.625 238.81 130.75 241.961 129.472 244.742L127.233 249.615L135.28 244.883C136.582 244.118 138.246 244.551 139.011 245.852C139.776 247.154 139.345 248.818 138.043 249.583L131.114 253.658C131.189 253.743 131.391 253.796 131.696 253.838C132.497 253.945 136.146 254.826 139.807 255.796C143.296 256.72 145.971 257.23 147.447 257.256L147.448 257.255Z" fill="#E66591"/>
<path fill-rule="evenodd" clip-rule="evenodd" d="M99.6389 266.732C101.648 266.728 102.816 266.456 104.365 265.764C105.779 265.132 108.833 263.2 111.152 261.47C113.471 259.741 115.372 258.105 115.377 257.835C115.377 257.832 115.377 257.832 115.377 257.83L108.352 258.301C106.662 258.415 105.21 257.145 105.096 255.455C104.981 253.765 106.252 252.314 107.942 252.199L113.791 251.807L110.433 249.115C108.511 247.574 105.894 245.769 104.619 245.103C103.344 244.437 100.984 243.705 99.3747 243.478C97.7662 243.249 95.794 243.178 94.9932 243.318C94.1924 243.459 92.7017 243.829 91.6801 244.138C90.6585 244.448 89.1508 245.23 88.3294 245.875C87.5091 246.521 86.8364 247.596 86.8364 248.264C86.8364 248.932 87.492 250.337 88.2928 251.387C89.0936 252.437 89.7491 253.466 89.7491 253.672C89.7491 253.878 88.962 254.833 88.001 255.795C87.0401 256.756 86.0928 258.18 85.8972 258.958C85.6822 259.817 85.9086 260.934 86.4761 261.799C86.9897 262.583 88.6268 263.937 90.1128 264.809C92.2373 266.053 93.7782 266.449 97.3052 266.653C98.2067 266.705 98.9686 266.733 99.6389 266.732Z" fill="#E66591"/>
<path fill-rule="evenodd" clip-rule="evenodd" d="M294.287 270.852C296.033 270.852 298.233 270.351 299.869 269.582C301.354 268.885 303.579 267.352 304.814 266.178C306.418 264.652 307.059 263.558 307.057 262.349C307.054 261.418 306.559 259.908 305.954 258.99L304.855 257.323L307.055 255.057C308.266 253.81 309.389 252.277 309.554 251.65C309.717 251.023 309.35 249.496 308.737 248.257C308.124 247.018 306.872 245.45 305.956 244.773C305.04 244.095 303.406 243.286 302.326 242.975C301.246 242.664 298.657 242.39 296.574 242.366C293.784 242.332 291.561 242.763 288.127 243.999C285.563 244.922 281.31 246.557 278.675 247.633C277.453 248.131 276.337 248.647 275.486 249.092L283.441 252.435C285.116 253.139 285.898 255.054 285.194 256.73C284.49 258.404 282.575 259.187 280.899 258.482L272.756 255.061C272.809 255.292 273.456 255.928 274.727 257.006C276.329 258.367 280.038 261.771 282.967 264.574C285.897 267.377 288.995 269.935 289.851 270.261C290.708 270.587 292.704 270.853 294.288 270.853L294.287 270.852Z" fill="#E66591"/>
<path fill-rule="evenodd" clip-rule="evenodd" d="M242.29 281.259C243.905 281.262 245.626 281.074 246.799 280.746C248.541 280.258 250.595 278.979 252.641 277.11C255.734 274.283 255.849 274.06 258.474 265.802C259.948 261.167 260.992 257.216 260.797 257.02C260.601 256.825 259.722 257.329 258.845 258.142C257.966 258.956 256.205 260.313 254.929 261.158C253.653 262.003 252.055 262.696 251.378 262.696C250.701 262.696 249.681 262.182 249.114 261.554C248.399 260.763 248.199 259.944 248.463 258.888C248.764 257.688 249.767 256.945 253.192 255.384C255.583 254.295 257.54 253.158 257.54 252.859C257.54 252.561 254.984 251.877 251.86 251.339C248.735 250.803 245.918 250.274 245.596 250.166C245.276 250.059 243.491 249.949 241.63 249.924C239.77 249.899 237.097 250.168 235.693 250.521C234.288 250.875 232.067 252.08 230.759 253.202C229.45 254.321 227.992 255.986 227.52 256.899C227.047 257.812 226.661 259.165 226.661 259.905C226.661 260.646 227.373 262.021 228.245 262.96C229.117 263.899 229.879 265 229.938 265.405C229.998 265.81 229.677 266.446 229.228 266.82C228.696 267.261 228.41 268.69 228.41 270.904C228.41 274.023 228.581 274.481 230.465 276.363C231.595 277.493 233.607 278.972 234.938 279.651C236.267 280.329 238.875 281.022 240.734 281.191C241.225 281.235 241.752 281.257 242.291 281.258L242.29 281.259Z" fill="#E66591"/>
<path fill-rule="evenodd" clip-rule="evenodd" d="M143.876 286C146.771 286 146.806 285.978 147.34 283.815C147.637 282.614 147.844 280.847 147.799 279.891C147.73 278.396 148.002 278.058 149.722 277.496C150.824 277.135 151.92 276.346 152.157 275.739C152.395 275.134 152.588 273.59 152.586 272.309C152.583 271.027 152.272 269.123 151.893 268.078C151.514 267.032 150.203 265.146 148.979 263.885C147.754 262.625 145.643 261.168 144.285 260.65C142.927 260.131 139.735 259.357 137.193 258.931C134.651 258.504 131.997 258.128 131.295 258.094C130.592 258.062 129.875 258.267 129.699 258.551C129.695 258.558 129.691 258.567 129.688 258.575L135.789 263.098C137.029 264.018 137.288 265.757 136.368 266.998C135.448 268.238 133.71 268.497 132.469 267.577L126.453 263.117V263.701C126.453 264.667 126.857 267.785 127.351 270.632C127.845 273.478 128.797 276.942 129.466 278.332C130.192 279.836 131.773 281.648 133.376 282.813C134.856 283.888 137.167 285.046 138.51 285.386C139.854 285.724 142.269 286.002 143.876 286.002V286Z" fill="#E66591"/>
<path fill-rule="evenodd" clip-rule="evenodd" d="M109.527 291.405L112.225 291.036C113.71 290.832 116.226 289.958 117.816 289.092C119.406 288.226 121.464 286.657 122.389 285.603C123.313 284.549 124.393 282.61 124.788 281.292C125.403 279.237 125.324 277.965 124.232 272.358C123.531 268.762 122.929 264.789 122.893 263.53L122.872 262.797L120.423 270.088C119.931 271.552 118.357 272.334 116.893 271.843C115.43 271.351 114.646 269.777 115.138 268.314L117.416 261.536L116.065 262.583C114.889 263.495 112.248 265.249 110.196 266.479C108.143 267.71 105.574 269.498 104.486 270.453C103.397 271.408 102.127 272.925 101.663 273.823C101.198 274.721 100.821 276.714 100.822 278.252C100.825 279.789 101.098 282.031 101.432 283.233C102.012 285.32 102.149 285.418 104.517 285.418C106.885 285.418 107.02 285.475 108.261 288.413L109.527 291.407V291.405Z" fill="#E66591"/>
<path fill-rule="evenodd" clip-rule="evenodd" d="M273.216 292.768C273.831 292.726 274.247 292.171 275.015 290.663C275.686 289.348 276.591 288.137 277.025 287.97C277.46 287.803 278.956 288.052 280.349 288.523C282.114 289.12 283.206 289.205 283.955 288.805C284.545 288.489 285.502 287.139 286.081 285.804C286.66 284.47 287.318 282.24 287.543 280.847C287.789 279.328 287.663 277.232 287.229 275.603C286.614 273.303 285.521 271.931 280.032 266.576C276.472 263.103 272.584 259.483 271.393 258.531L269.228 256.802L270.983 261.057C272.241 264.11 272.688 266.054 272.566 267.937C272.405 270.399 272.283 270.572 270.597 270.737C269.554 270.839 268.508 270.561 268.104 270.074C267.722 269.613 267.028 267.437 266.562 265.239C266.168 263.376 264.982 259.622 264.639 257.926C264.564 258.394 264.418 259.028 264.19 259.808C263.677 261.556 262.364 265.647 261.272 268.896C260.18 272.146 259.286 275.89 259.286 277.218C259.286 278.611 259.879 280.798 260.689 282.398C261.46 283.919 263.153 286.26 264.452 287.597C265.75 288.934 267.806 290.53 269.021 291.143C270.236 291.757 271.808 292.436 272.512 292.655C272.782 292.738 273.01 292.78 273.215 292.767L273.216 292.768Z" fill="#E66591"/>
<path fill-rule="evenodd" clip-rule="evenodd" d="M200.722 306.766C200.747 306.766 200.769 306.765 200.803 306.76C201.559 306.671 204.445 305.904 207.784 304.898C211.598 303.748 215.984 302.247 217.53 301.564C219.078 300.881 221.095 299.466 222.014 298.419C222.932 297.374 223.959 295.527 224.295 294.317C224.631 293.107 224.907 291.107 224.909 289.874C224.912 288.64 224.488 286.737 223.969 285.643C223.366 284.372 222.473 283.523 221.493 283.29C220.65 283.089 219.631 282.664 219.227 282.346C218.824 282.028 218.33 280.743 218.13 279.492C217.917 278.158 217.256 276.843 216.533 276.318C215.614 275.65 214.308 275.487 211.411 275.677C208.615 275.861 206.801 276.355 204.956 277.436C203.544 278.263 201.423 279.936 200.241 281.152C199.059 282.368 197.573 284.752 196.937 286.45C196.051 288.819 195.799 290.853 195.852 295.195C195.889 298.308 196.086 301.606 196.289 302.525L196.312 302.627L203.641 295.336C204.828 294.156 206.733 294.16 207.914 295.348C209.095 296.535 209.089 298.44 207.903 299.62L200.722 306.764V306.766Z" fill="#E66591"/>
<path fill-rule="evenodd" clip-rule="evenodd" d="M187.371 307.268L180.275 299.616C179.121 298.371 179.194 296.441 180.439 295.287C181.683 294.133 183.613 294.206 184.767 295.451L191.99 303.239C192.325 302.688 192.336 301.021 192.167 296.633C191.949 291.034 191.652 289.257 190.534 286.875C189.783 285.274 188.418 282.995 187.503 281.812C186.543 280.573 184.326 278.906 182.27 277.879C179.953 276.721 177.826 276.096 176.201 276.096C174.826 276.096 173.037 276.398 172.226 276.768C171.179 277.245 170.65 278.048 170.406 279.535C170.216 280.688 169.97 281.925 169.86 282.285C169.75 282.646 168.725 283.116 167.582 283.33C166.439 283.545 165.253 284.188 164.948 284.76C164.641 285.332 164.219 287.097 164.008 288.683C163.798 290.275 163.91 292.603 164.259 293.881C164.607 295.154 165.699 297.054 166.688 298.102C167.676 299.15 170.105 300.827 172.085 301.828C174.065 302.829 178.287 304.527 181.467 305.599C184.25 306.537 186.693 307.222 187.371 307.269C187.372 307.269 187.372 307.269 187.373 307.269L187.371 307.268Z" fill="#E66591"/>
<path fill-rule="evenodd" clip-rule="evenodd" d="M165.828 334.939C167.583 334.939 170.396 334.393 172.279 333.689C174.569 332.832 176.454 331.561 178.273 329.645C179.733 328.108 182.43 324.475 184.269 321.573C185.392 319.799 186.324 318.231 186.84 317.272L178.518 319.988C176.963 320.495 175.302 319.652 174.794 318.096C174.287 316.541 175.13 314.88 176.686 314.372L185.247 311.581C185.012 311.477 184.704 311.375 184.345 311.289C183.427 311.067 181.715 310.406 180.543 309.819C179.37 309.232 176.487 308.096 174.134 307.296C171.267 306.319 168.558 305.834 165.918 305.823C163.099 305.813 161.233 306.158 159.359 307.039C157.919 307.717 156.047 309.093 155.2 310.098C154.352 311.104 153.305 312.77 152.873 313.8C152.44 314.831 152.087 316.349 152.087 317.173C152.087 317.997 152.602 319.681 153.232 320.915C153.861 322.149 155.075 323.667 155.927 324.289C157.254 325.255 157.383 325.595 156.822 326.644C156.46 327.319 156.166 328.376 156.166 328.995C156.166 329.614 156.714 330.817 157.385 331.67C158.055 332.522 159.53 333.606 160.66 334.079C161.791 334.551 164.117 334.938 165.827 334.938L165.828 334.939Z" fill="#E66591"/>
<path fill-rule="evenodd" clip-rule="evenodd" d="M222.326 335.896C223.332 335.884 224.317 335.683 225.735 335.27C227.483 334.761 229.719 333.668 230.701 332.842C231.767 331.945 232.488 330.783 232.488 329.962C232.488 329.204 232.196 327.946 231.841 327.165C231.252 325.871 231.46 325.489 234.171 322.875C236.438 320.69 237.145 319.597 237.135 318.295C237.129 317.355 236.634 315.511 236.037 314.196C235.44 312.882 234.023 310.879 232.889 309.744C231.754 308.609 229.692 307.264 228.306 306.752C226.481 306.079 224.34 305.882 220.543 306.036C216.29 306.209 214.253 306.641 209.764 308.326C206.72 309.468 203.508 310.578 202.628 310.79C202.082 310.922 201.598 311.129 201.308 311.335L210.601 313.735C212.185 314.145 213.131 315.749 212.722 317.333C212.313 318.917 210.709 319.864 209.124 319.454L200.442 317.213C201.065 318.25 202.023 319.733 203.157 321.393C205.291 324.517 208.11 328.208 209.421 329.596C210.732 330.983 212.859 332.743 214.149 333.506C215.438 334.269 217.856 335.186 219.524 335.544C220.452 335.743 221.192 335.861 221.892 335.89C222.038 335.896 222.182 335.898 222.326 335.896Z" fill="#E66591"/>
<path fill-rule="evenodd" clip-rule="evenodd" d="M197.969 353.582C198.341 353.582 200.067 352.192 201.806 350.494C203.546 348.796 205.561 346.108 206.284 344.522C207.055 342.832 207.617 340.426 207.642 338.706C207.671 336.707 207.255 334.949 206.332 333.18C205.588 331.752 203.003 327.763 200.586 324.314C198.51 321.352 196.702 318.864 196.161 318.218L196.283 325.314C196.306 325.89 196.315 326.393 196.309 326.834L196.326 327.854C196.353 329.377 195.148 330.624 193.624 330.65C192.102 330.677 190.855 329.472 190.828 327.948L190.678 319.242L188.242 322.758C186.819 324.811 184.781 327.572 183.716 328.894C182.65 330.216 181.356 332.537 180.84 334.05C180.221 335.865 180.016 337.76 180.236 339.617C180.419 341.166 181.139 343.565 181.833 344.949C182.529 346.332 183.753 348.339 184.555 349.408C185.357 350.477 186.828 351.847 187.824 352.454L189.636 353.555L191.543 351.707L193.45 349.858L195.371 351.719C196.428 352.743 197.596 353.582 197.967 353.582H197.969Z" fill="#E66591"/>
<path fill-rule="evenodd" clip-rule="evenodd" d="M313.296 184.837C313.296 183.976 313.638 183.15 314.247 182.541C314.855 181.933 315.681 181.591 316.543 181.591C317.404 181.591 318.229 181.933 318.839 182.541C319.447 183.15 319.789 183.976 319.789 184.837C319.789 185.699 319.447 186.523 318.839 187.132C318.23 187.741 317.404 188.083 316.543 188.083C315.681 188.083 314.856 187.741 314.247 187.132C313.638 186.523 313.296 185.698 313.296 184.837Z" fill="#ED92B1"/>
<path fill-rule="evenodd" clip-rule="evenodd" d="M187.638 194.756C187.638 193.615 188.091 192.521 188.897 191.714C189.704 190.907 190.797 190.454 191.939 190.454C193.081 190.454 194.173 190.907 194.98 191.714C195.786 192.52 196.24 193.614 196.24 194.756C196.24 197.131 194.314 199.056 191.939 199.056C189.564 199.056 187.638 197.131 187.638 194.756Z" fill="#ED92B1"/>
<path fill-rule="evenodd" clip-rule="evenodd" d="M260.564 250.181C260.564 247.631 262.632 245.564 265.182 245.564C267.731 245.564 269.799 247.631 269.799 250.181C269.799 252.731 267.731 254.799 265.182 254.799C262.632 254.799 260.564 252.731 260.564 250.181Z" fill="#ED92B1"/>
<path fill-rule="evenodd" clip-rule="evenodd" d="M118.941 255.23C118.941 252.952 120.786 251.107 123.064 251.107C125.341 251.107 127.187 252.952 127.187 255.23C127.187 256.323 126.752 257.371 125.978 258.146C125.205 258.919 124.156 259.353 123.064 259.353C121.971 259.353 120.921 258.918 120.147 258.146C119.374 257.373 118.941 256.323 118.941 255.23Z" fill="#ED92B1"/>
<path fill-rule="evenodd" clip-rule="evenodd" d="M189.539 311.327C189.539 309.071 191.368 307.242 193.624 307.242C194.708 307.242 195.748 307.672 196.513 308.438C197.279 309.205 197.709 310.244 197.709 311.327C197.709 312.41 197.278 313.45 196.513 314.216C195.746 314.982 194.708 315.412 193.624 315.412C192.541 315.412 191.501 314.982 190.736 314.216C189.969 313.449 189.539 312.41 189.539 311.327Z" fill="#ED92B1"/>
<path fill-rule="evenodd" clip-rule="evenodd" d="M251.157 121.056C252.83 121.024 254.469 120.829 254.8 120.624C255.176 120.391 255.271 118.689 255.054 116.065C254.84 113.477 254.177 110.762 253.32 108.963C252.538 107.317 251.1 105.487 250.018 104.758C248.964 104.048 247.056 103.236 245.778 102.954C244.5 102.672 243.206 102.663 242.902 102.934C242.598 103.206 241.615 103.428 240.717 103.428C239.09 103.428 239.086 103.438 239.098 107.36C239.107 109.926 239.485 112.103 240.185 113.623C240.775 114.906 241.914 116.649 242.713 117.499C243.514 118.349 245.056 119.511 246.142 120.08C247.367 120.723 249.268 121.092 251.157 121.056Z" fill="#ED91B1"/>
<path fill-rule="evenodd" clip-rule="evenodd" d="M167.74 387.783C166.689 386.481 165.53 385.306 165.166 385.17C164.751 385.016 163.348 385.985 161.408 387.766C159.496 389.522 157.758 391.71 156.862 393.491C156.042 395.118 155.479 397.376 155.567 398.678C155.652 399.946 156.18 401.951 156.742 403.133C157.302 404.316 158.089 405.343 158.489 405.417C158.891 405.491 159.669 406.131 160.22 406.84C161.218 408.125 161.229 408.122 164.318 405.707C166.339 404.126 167.827 402.493 168.599 401.007C169.25 399.755 169.929 397.786 170.11 396.633C170.29 395.48 170.262 393.549 170.046 392.343C169.802 390.98 168.928 389.252 167.74 387.783Z" fill="#ED91B1"/>
<path fill-rule="evenodd" clip-rule="evenodd" d="M230.817 130.122C231.24 130.122 231.639 130.101 231.987 130.062C233.644 129.876 235.63 129.003 237.758 127.526C239.542 126.288 241.289 125.09 241.639 124.863C242.049 124.599 241.627 123.764 240.463 122.533C239.466 121.477 237.811 119.434 236.787 117.992C235.764 116.551 234.354 115.052 233.655 114.663C232.957 114.274 231.114 113.946 229.561 113.934C228.007 113.923 225.834 114.342 224.731 114.866C223.627 115.388 222.015 116.569 221.149 117.487C220.282 118.405 219.244 119.157 218.843 119.157C218.441 119.157 218.113 119.636 218.113 120.222C218.113 120.808 218.925 122.512 219.917 124.011C220.91 125.508 222.386 127.257 223.198 127.896C224.01 128.534 225.751 129.347 227.068 129.702C228.055 129.968 229.548 130.125 230.818 130.121L230.817 130.122Z" fill="#ED91B1"/>
<path fill-rule="evenodd" clip-rule="evenodd" d="M241.887 147.12C242.75 147.117 244.504 146.83 245.785 146.479C247.288 146.068 249.076 144.851 250.821 143.053C253.128 140.674 253.665 139.657 254.462 136.15C254.977 133.887 255.398 131.768 255.398 131.44C255.398 131.112 254.546 130.583 253.505 130.264C252.464 129.946 250.38 129.793 248.875 129.925C247.371 130.057 245.272 130.602 244.214 131.137C243.156 131.671 241.575 132.776 240.703 133.593C239.83 134.41 238.74 136.28 238.279 137.75C237.819 139.221 237.293 141.668 237.11 143.191C236.793 145.822 236.847 145.958 238.188 145.958C238.964 145.958 239.761 146.22 239.959 146.541C240.157 146.861 241.025 147.122 241.886 147.12H241.887Z" fill="#ED91B1"/>
<path fill-rule="evenodd" clip-rule="evenodd" d="M103.984 329.109C104.967 329.107 106.704 328.847 107.844 328.53C108.983 328.214 110.595 327.232 111.424 326.349C112.254 325.466 113.52 323.358 114.239 321.666C114.956 319.975 115.401 318.447 115.227 318.273C115.053 318.099 113.378 317.327 111.507 316.557C109.635 315.787 107.166 315.151 106.021 315.145C104.877 315.138 102.761 315.532 101.321 316.023C99.719 316.569 97.6255 318.007 95.9381 319.721L93.1765 322.524L94.6683 323.501C95.5938 324.108 96.1601 325.018 96.1601 325.899C96.1601 327.106 96.6131 327.454 99.1791 328.216C100.839 328.709 103.002 329.11 103.985 329.109H103.984Z" fill="#ED91B1"/>
<path fill-rule="evenodd" clip-rule="evenodd" d="M134.855 364.65C135.15 364.65 135.861 364.226 136.436 363.706C137.01 363.187 137.817 362.923 138.23 363.12C138.643 363.317 139.459 363.808 140.045 364.211C140.976 364.85 141.364 364.652 143.113 362.65C144.215 361.39 145.505 359.048 145.98 357.446C146.456 355.846 146.844 353.682 146.844 352.64C146.844 351.598 146.593 350.086 146.287 349.282C145.98 348.476 144.735 346.713 143.519 345.363C142.303 344.013 140.542 342.442 139.605 341.868C137.913 340.835 137.885 340.84 135.704 342.567C134.496 343.525 132.845 345.094 132.035 346.058C131.225 347.021 130.243 348.87 129.855 350.167C129.307 351.997 129.303 353.263 129.836 355.803C130.216 357.617 131.371 360.325 132.42 361.864C133.464 363.396 134.56 364.649 134.855 364.65Z" fill="#ED91B1"/>
<path fill-rule="evenodd" clip-rule="evenodd" d="M315.445 138.239C315.445 135.487 317.676 133.258 320.426 133.258C321.748 133.258 323.014 133.783 323.949 134.716C324.882 135.65 325.407 136.917 325.407 138.239C325.407 139.56 324.882 140.826 323.949 141.761C323.015 142.695 321.748 143.22 320.426 143.22C319.105 143.22 317.839 142.695 316.904 141.761C315.969 140.826 315.445 139.56 315.445 138.239Z" fill="#ED91B1"/>
</g>
</svg>
